<svg xmlns="http://www.w3.org/2000/svg" xmlns:xlink="http://www.w3.org/1999/xlink" version="1.1" style="shape-rendering:geometricPrecision; text-rendering:geometricPrecision; image-rendering:optimizeQuality; fill-rule:evenodd; clip-rule:evenodd" viewBox="187.67 640.83 1728.74 726.67">
<g><path style="opacity:1" fill="#0286f1" d="M 487.5,729.5 C 477.017,732.139 466.35,732.972 455.5,732C 453,731.625 450.667,730.792 448.5,729.5C 447.893,729.624 447.56,729.957 447.5,730.5C 431.623,722.776 422.456,710.109 420,692.5C 419.09,669.151 429.256,652.651 450.5,643C 481.37,635.683 502.204,646.849 513,676.5C 516.321,699.857 507.821,717.524 487.5,729.5 Z"/></g>
<g><path style="opacity:1" fill="#03428a" d="M 487.5,729.5 C 487.5,742.833 487.5,756.167 487.5,769.5C 481.335,770.75 475.002,771.417 468.5,771.5C 461.399,771.339 454.399,770.672 447.5,769.5C 447.5,756.5 447.5,743.5 447.5,730.5C 447.56,729.957 447.893,729.624 448.5,729.5C 450.667,730.792 453,731.625 455.5,732C 466.35,732.972 477.017,732.139 487.5,729.5 Z"/></g>
<g><path style="opacity:1" fill="#03112a" d="M 447.5,769.5 C 454.399,770.672 461.399,771.339 468.5,771.5C 475.002,771.417 481.335,770.75 487.5,769.5C 512.167,769.5 536.833,769.5 561.5,769.5C 561.937,771.074 562.937,772.241 564.5,773C 580.607,773.676 596.607,775.342 612.5,778C 614.992,779.604 617.659,780.938 620.5,782C 619.833,782.333 619.167,782.667 618.5,783C 624.386,782.96 630.053,783.96 635.5,786C 638.167,787.333 640.833,788.667 643.5,790C 644.337,791.011 644.67,792.178 644.5,793.5C 645.833,793.5 647.167,793.5 648.5,793.5C 649.281,798.42 652.281,800.586 657.5,800C 659.677,801.186 660.677,803.019 660.5,805.5C 661.873,805.343 663.207,805.51 664.5,806C 670.857,811.556 675.024,818.39 677,826.5C 683.101,835.455 687.267,845.289 689.5,856C 689.23,857.514 688.897,859.014 688.5,860.5C 690.087,864.087 691.587,867.754 693,871.5C 693.036,880.09 694.202,888.424 696.5,896.5C 710.333,897.184 721.167,903.184 729,914.5C 729.49,915.793 729.657,917.127 729.5,918.5C 732.388,918.22 733.888,919.553 734,922.5C 734.654,923.696 735.154,923.696 735.5,922.5C 733.489,918.478 731.489,914.478 729.5,910.5C 735.306,917.144 739.473,924.81 742,933.5C 743.413,948.116 743.913,962.783 743.5,977.5C 742.672,983.653 742.172,989.987 742,996.5C 741.667,996.167 741.333,995.833 741,995.5C 740.667,980.5 740.333,965.5 740,950.5C 739.667,973.167 739.333,995.833 739,1018.5C 737.127,1022.58 734.96,1026.58 732.5,1030.5C 731.749,1029.62 731.249,1028.62 731,1027.5C 730.061,1030.12 729.228,1032.79 728.5,1035.5C 724.599,1038.9 721.266,1042.73 718.5,1047C 717.552,1047.48 716.552,1047.65 715.5,1047.5C 715.439,1049.59 714.439,1051.09 712.5,1052C 706.915,1053.82 701.248,1055.32 695.5,1056.5C 692.55,1075.99 686.384,1094.32 677,1111.5C 672.386,1116.82 667.386,1121.15 662,1124.5C 661.337,1128.99 658.837,1131.66 654.5,1132.5C 654.67,1133.82 654.337,1134.99 653.5,1136C 651.416,1136.78 649.583,1137.94 648,1139.5C 647.667,1139.17 647.333,1138.83 647,1138.5C 646.545,1143.54 644.378,1145.21 640.5,1143.5C 639.059,1144.87 637.726,1146.37 636.5,1148C 633.197,1149.26 630.031,1150.76 627,1152.5C 626.055,1152.09 625.388,1151.43 625,1150.5C 621.703,1154.24 617.869,1156.41 613.5,1157C 611.078,1159.62 609.411,1162.62 608.5,1166C 609.799,1169.78 612.465,1171.28 616.5,1170.5C 616.351,1171.55 616.517,1172.55 617,1173.5C 618.693,1174.18 620.193,1175.18 621.5,1176.5C 623.741,1176.88 626.074,1177.05 628.5,1177C 626.729,1177.54 626.396,1178.37 627.5,1179.5C 633.547,1180.26 639.213,1182.09 644.5,1185C 647.735,1189.64 651.735,1193.48 656.5,1196.5C 657.748,1197.04 658.915,1197.71 660,1198.5C 660.519,1197.48 661.353,1196.82 662.5,1196.5C 670.999,1202.16 678.166,1209.16 684,1217.5C 687.265,1219.76 690.265,1222.43 693,1225.5C 697.656,1235.48 703.323,1244.82 710,1253.5C 725.376,1288.12 730.209,1323.46 724.5,1359.5C 721.795,1361.51 719.128,1363.51 716.5,1365.5C 717.949,1366.17 719.282,1366.84 720.5,1367.5C 552.167,1367.5 383.833,1367.5 215.5,1367.5C 215.082,1366.78 214.416,1366.28 213.5,1366C 221.863,1365.25 222.197,1364.25 214.5,1363C 217.597,1360.98 216.93,1359.15 212.5,1357.5C 210.724,1354.94 209.224,1352.28 208,1349.5C 207.4,1338.1 208.066,1326.77 210,1315.5C 210.333,1316.17 210.667,1316.83 211,1317.5C 212.387,1307.87 213.387,1298.21 214,1288.5C 215,1287.5 216,1286.5 217,1285.5C 219.894,1275.13 222.894,1264.8 226,1254.5C 228.482,1248.68 232.149,1243.68 237,1239.5C 237.333,1236.83 237.667,1234.17 238,1231.5C 257.194,1206.47 281.028,1186.97 309.5,1173C 309,1172.83 308.5,1172.67 308,1172.5C 305.953,1173.61 303.787,1174.28 301.5,1174.5C 306.781,1170.85 312.448,1167.69 318.5,1165C 316.216,1163.74 313.882,1162.57 311.5,1161.5C 311.56,1160.96 311.893,1160.62 312.5,1160.5C 314.957,1162.22 317.623,1162.72 320.5,1162C 313.332,1157.46 305.665,1153.96 297.5,1151.5C 294.416,1146.58 290.083,1143.41 284.5,1142C 280.656,1137.45 276.489,1133.28 272,1129.5C 269.961,1125.82 267.628,1122.49 265,1119.5C 260.43,1116.72 256.763,1113.05 254,1108.5C 252.978,1102.78 251.645,1097.11 250,1091.5C 247.65,1089.45 246.816,1087.11 247.5,1084.5C 246.286,1080.54 245.286,1076.54 244.5,1072.5C 244.709,1071.91 245.043,1071.41 245.5,1071C 243.352,1068.93 243.018,1066.59 244.5,1064C 243.552,1063.52 242.552,1063.35 241.5,1063.5C 241.5,1059.5 239.5,1057.5 235.5,1057.5C 235.66,1059.2 235.494,1060.87 235,1062.5C 234.722,1061.58 234.222,1060.92 233.5,1060.5C 233.5,1059.5 233.5,1058.5 233.5,1057.5C 232.5,1057.5 231.5,1057.5 230.5,1057.5C 231.589,1055.88 233.256,1055.05 235.5,1055C 228.76,1054.06 222.093,1052.73 215.5,1051C 214.108,1048.77 212.108,1047.61 209.5,1047.5C 209.66,1045.8 209.494,1044.13 209,1042.5C 207.307,1041.82 205.807,1040.82 204.5,1039.5C 203.833,1036.83 203.167,1034.17 202.5,1031.5C 201.859,1029.7 200.859,1028.2 199.5,1027C 200.022,1026.44 200.355,1025.77 200.5,1025C 199.78,1019.06 198.613,1013.23 197,1007.5C 196.667,1008.17 196.333,1008.83 196,1009.5C 195.812,993.302 195.312,977.135 194.5,961C 195.802,959.077 195.635,957.243 194,955.5C 193.5,945.839 193.334,936.172 193.5,926.5C 194.833,926.5 196.167,926.5 197.5,926.5C 198.219,917.065 202.553,909.732 210.5,904.5C 218.697,899.849 227.53,897.515 237,897.5C 237.333,890.5 237.667,883.5 238,876.5C 240.533,870.357 242.533,864.024 244,857.5C 244.333,857.833 244.667,858.167 245,858.5C 245.667,854.5 246.333,850.5 247,846.5C 250.68,841.462 253.014,835.796 254,829.5C 255.11,827.963 256.61,827.297 258.5,827.5C 258.459,823.321 260.459,820.487 264.5,819C 263.549,818.282 263.383,817.449 264,816.5C 267.307,813.439 270.14,810.606 272.5,808C 272.167,807.667 271.833,807.333 271.5,807C 272.949,805.883 274.616,805.216 276.5,805C 276.167,804.667 275.833,804.333 275.5,804C 279.132,799.127 283.799,795.46 289.5,793C 289.167,792.667 288.833,792.333 288.5,792C 307.278,781.216 327.611,775.216 349.5,774C 347.833,773.667 346.167,773.333 344.5,773C 349.294,772.098 353.961,771.265 358.5,770.5C 388.151,769.557 417.817,769.224 447.5,769.5 Z"/></g>
<g><path style="opacity:0.841" fill="#0b101b" d="M 561.5,769.5 C 585.169,768.887 608.169,772.387 630.5,780C 678.191,802.226 700.857,839.726 698.5,892.5C 711.492,894.155 721.826,900.155 729.5,910.5C 731.489,914.478 733.489,918.478 735.5,922.5C 735.154,923.696 734.654,923.696 734,922.5C 733.888,919.553 732.388,918.22 729.5,918.5C 729.657,917.127 729.49,915.793 729,914.5C 721.167,903.184 710.333,897.184 696.5,896.5C 694.202,888.424 693.036,880.09 693,871.5C 691.587,867.754 690.087,864.087 688.5,860.5C 688.897,859.014 689.23,857.514 689.5,856C 687.267,845.289 683.101,835.455 677,826.5C 675.024,818.39 670.857,811.556 664.5,806C 663.207,805.51 661.873,805.343 660.5,805.5C 660.677,803.019 659.677,801.186 657.5,800C 652.281,800.586 649.281,798.42 648.5,793.5C 647.167,793.5 645.833,793.5 644.5,793.5C 644.67,792.178 644.337,791.011 643.5,790C 640.833,788.667 638.167,787.333 635.5,786C 630.053,783.96 624.386,782.96 618.5,783C 619.167,782.667 619.833,782.333 620.5,782C 617.659,780.938 614.992,779.604 612.5,778C 596.607,775.342 580.607,773.676 564.5,773C 562.937,772.241 561.937,771.074 561.5,769.5 Z"/></g>
<g><path style="opacity:1" fill="#fbfcfc" d="M 644.5,821.5 C 662.912,839.873 672.079,862.207 672,888.5C 672.667,940.5 672.667,992.5 672,1044.5C 669.294,1063.04 663.794,1080.71 655.5,1097.5C 641.474,1116.04 623.474,1128.88 601.5,1136C 592.831,1138 584.165,1139.66 575.5,1141C 539.189,1142.14 502.856,1142.64 466.5,1142.5C 433.167,1142.17 399.833,1141.83 366.5,1141.5C 351.695,1140.22 337.028,1137.88 322.5,1134.5C 305.612,1127.97 291.445,1117.63 280,1103.5C 267.994,1086.86 261.161,1068.2 259.5,1047.5C 259.333,993.166 259.5,938.832 260,884.5C 261.98,866.4 267.647,849.4 277,833.5C 288.985,817.854 304.485,807.354 323.5,802C 330.659,800.301 337.993,799.134 345.5,798.5C 425.165,797.333 504.831,797.167 584.5,798C 606.849,799.838 626.849,807.672 644.5,821.5 Z"/></g>
<g><path style="opacity:0.816" fill="#070c18" d="M 358.5,770.5 C 353.961,771.265 349.294,772.098 344.5,773C 346.167,773.333 347.833,773.667 349.5,774C 327.611,775.216 307.278,781.216 288.5,792C 288.833,792.333 289.167,792.667 289.5,793C 283.799,795.46 279.132,799.127 275.5,804C 275.833,804.333 276.167,804.667 276.5,805C 274.616,805.216 272.949,805.883 271.5,807C 271.833,807.333 272.167,807.667 272.5,808C 270.14,810.606 267.307,813.439 264,816.5C 263.383,817.449 263.549,818.282 264.5,819C 260.459,820.487 258.459,823.321 258.5,827.5C 256.61,827.297 255.11,827.963 254,829.5C 253.014,835.796 250.68,841.462 247,846.5C 246.333,850.5 245.667,854.5 245,858.5C 244.667,858.167 244.333,857.833 244,857.5C 242.533,864.024 240.533,870.357 238,876.5C 237.667,883.5 237.333,890.5 237,897.5C 227.53,897.515 218.697,899.849 210.5,904.5C 202.553,909.732 198.219,917.065 197.5,926.5C 196.167,926.5 194.833,926.5 193.5,926.5C 193.334,936.172 193.5,945.839 194,955.5C 195.635,957.243 195.802,959.077 194.5,961C 195.312,977.135 195.812,993.302 196,1009.5C 196.333,1008.83 196.667,1008.17 197,1007.5C 198.613,1013.23 199.78,1019.06 200.5,1025C 200.355,1025.77 200.022,1026.44 199.5,1027C 200.859,1028.2 201.859,1029.7 202.5,1031.5C 203.167,1034.17 203.833,1036.83 204.5,1039.5C 205.807,1040.82 207.307,1041.82 209,1042.5C 209.494,1044.13 209.66,1045.8 209.5,1047.5C 212.108,1047.61 214.108,1048.77 215.5,1051C 222.093,1052.73 228.76,1054.06 235.5,1055C 233.256,1055.05 231.589,1055.88 230.5,1057.5C 204.983,1054.48 191.15,1040.15 189,1014.5C 187.227,987.49 187.227,960.49 189,933.5C 194.129,909.868 208.629,896.534 232.5,893.5C 235.29,822.212 271.956,781.378 342.5,771C 347.823,770.501 353.156,770.334 358.5,770.5 Z"/></g>
<g><path style="opacity:1" fill="#3d4a57" d="M 586.5,863.5 C 585.178,863.33 584.011,863.663 583,864.5C 508.047,862.505 432.88,861.838 357.5,862.5C 360.305,861.681 363.305,861.181 366.5,861C 436.5,860.333 506.5,860.333 576.5,861C 580.133,861.149 583.466,861.982 586.5,863.5 Z"/></g>
<g><path style="opacity:1" fill="#051229" d="M 357.5,862.5 C 432.88,861.838 508.047,862.505 583,864.5C 584.011,863.663 585.178,863.33 586.5,863.5C 606.1,869.267 618.934,881.933 625,901.5C 625.667,950.167 625.667,998.833 625,1047.5C 618.449,1075.38 600.949,1091.55 572.5,1096C 502.459,1096.83 432.459,1096.66 362.5,1095.5C 361.517,1094.15 360.184,1093.15 358.5,1092.5C 353.936,1090.72 349.27,1089.22 344.5,1088C 339.756,1084.59 334.756,1081.59 329.5,1079C 326.698,1074.53 323.198,1070.7 319,1067.5C 317.545,1063.59 316.378,1059.59 315.5,1055.5C 314.522,1055.02 313.689,1054.36 313,1053.5C 310.948,1045.3 309.781,1036.97 309.5,1028.5C 310.763,1012.94 310.763,997.439 309.5,982C 310.321,971.577 310.821,961.077 311,950.5C 311.5,950 312,949.5 312.5,949C 312.528,933.381 312.195,917.881 311.5,902.5C 312.675,902.719 313.675,902.386 314.5,901.5C 316.953,897.308 319.119,892.975 321,888.5C 321.333,888.833 321.667,889.167 322,889.5C 322.182,886.774 322.682,884.107 323.5,881.5C 325.071,880.691 326.738,880.357 328.5,880.5C 328.5,879.167 328.5,877.833 328.5,876.5C 333.871,877.977 337.538,875.977 339.5,870.5C 340.675,871.855 341.675,871.688 342.5,870C 342.167,869.667 341.833,869.333 341.5,869C 343.81,868.503 346.143,868.337 348.5,868.5C 348.5,867.5 348.5,866.5 348.5,865.5C 351.67,864.735 354.67,863.735 357.5,862.5 Z"/></g>
<g><path style="opacity:1" fill="#01112c" d="M 392.5,919.5 C 382.492,915.597 373.658,917.264 366,924.5C 365.209,925.745 364.709,927.078 364.5,928.5C 362.926,930.102 362.259,932.102 362.5,934.5C 361.679,937.641 361.179,940.975 361,944.5C 360.5,956.829 360.333,969.162 360.5,981.5C 359.71,980.391 359.21,979.058 359,977.5C 359.136,965.419 358.303,953.586 356.5,942C 357.428,941.612 358.095,940.945 358.5,940C 356.209,936.181 355.876,932.181 357.5,928C 357.22,926.605 356.553,925.438 355.5,924.5C 354.513,927.768 354.18,931.102 354.5,934.5C 352.5,934.5 350.5,934.5 348.5,934.5C 348.822,936.722 348.155,938.556 346.5,940C 350.236,941.507 350.236,942.34 346.5,942.5C 347.374,945.682 348.707,948.682 350.5,951.5C 347.38,956.044 345.88,961.044 346,966.5C 346.556,964.405 347.056,964.238 347.5,966C 346.351,967.73 346.351,969.396 347.5,971C 345.879,974.361 344.545,977.861 343.5,981.5C 342.702,979.922 342.202,978.256 342,976.5C 341.667,976.833 341.333,977.167 341,977.5C 340.692,976.692 340.192,976.025 339.5,975.5C 339.127,977.883 338.627,980.55 338,983.5C 336.989,984.337 335.822,984.67 334.5,984.5C 335.026,979.891 334.359,975.557 332.5,971.5C 333.167,970.833 333.833,970.167 334.5,969.5C 332.833,968.167 331.167,966.833 329.5,965.5C 329.414,961.246 329.747,956.913 330.5,952.5C 329.178,952.33 328.011,952.663 327,953.5C 326.5,953 326,952.5 325.5,952C 326.973,951.29 327.64,950.124 327.5,948.5C 322.426,949.144 321.426,951.477 324.5,955.5C 323.189,956.258 322.689,957.258 323,958.5C 328.574,957.384 328.574,958.384 323,961.5C 322.963,964.307 322.796,966.974 322.5,969.5C 324.249,970.949 324.416,972.282 323,973.5C 322.667,976.5 322.333,979.5 322,982.5C 321.086,983.654 320.253,983.487 319.5,982C 319.78,974.523 320.113,967.023 320.5,959.5C 318.199,957.837 318.199,956.003 320.5,954C 319.624,952.414 318.624,950.914 317.5,949.5C 318.739,947.689 319.406,945.689 319.5,943.5C 318.705,935.82 318.038,928.32 317.5,921C 320.668,920.418 321.001,919.418 318.5,918C 320.689,917.323 321.022,916.156 319.5,914.5C 320.06,912.146 320.727,909.813 321.5,907.5C 323.833,908.5 324.5,907.833 323.5,905.5C 327.481,904.506 327.481,903.506 323.5,902.5C 322.833,903.833 322.167,905.167 321.5,906.5C 320.682,904.892 320.015,903.225 319.5,901.5C 321.53,898.774 323.03,895.774 324,892.5C 325.667,893.833 327.333,895.167 329,896.5C 329.163,894.324 329.996,892.491 331.5,891C 329.311,890.323 328.978,889.156 330.5,887.5C 332.894,886.651 335.227,885.651 337.5,884.5C 338.999,886.802 340.332,886.469 341.5,883.5C 340.674,882.549 340.508,881.549 341,880.5C 342,881.833 343,883.167 344,884.5C 345.337,881.998 347.171,879.998 349.5,878.5C 346.312,878.647 342.979,878.314 339.5,877.5C 341.672,876.795 343.672,875.795 345.5,874.5C 346.965,875.609 347.965,875.109 348.5,873C 350.101,872.727 351.601,872.227 353,871.5C 354.147,872.458 355.147,872.125 356,870.5C 356.667,871.167 357.333,871.833 358,872.5C 359.333,871.167 360.667,869.833 362,868.5C 364.2,870.831 366.2,870.831 368,868.5C 369.402,870.973 370.902,870.973 372.5,868.5C 373.854,870.184 375.521,870.684 377.5,870C 375.405,869.444 375.238,868.944 377,868.5C 377.95,869.022 378.784,869.689 379.5,870.5C 381.523,868.827 383.856,868.16 386.5,868.5C 386.338,870.527 386.505,872.527 387,874.5C 388.68,875.603 390.18,875.27 391.5,873.5C 393.804,876.151 396.137,876.151 398.5,873.5C 401.688,873.856 403.855,875.523 405,878.5C 405.49,877.207 405.657,875.873 405.5,874.5C 407.199,874.34 408.866,874.506 410.5,875C 409.911,878.346 410.578,878.346 412.5,875C 413.448,874.517 414.448,874.351 415.5,874.5C 415.343,875.873 415.51,877.207 416,878.5C 417.409,874.045 420.242,872.712 424.5,874.5C 421.733,878.411 422.233,879.078 426,876.5C 426.55,872.227 428.217,871.56 431,874.5C 433.537,874.3 435.204,872.967 436,870.5C 436.395,872.179 436.228,873.845 435.5,875.5C 435.76,878.317 436.76,878.817 438.5,877C 438.043,876.586 437.709,876.086 437.5,875.5C 441.594,873.027 445.594,873.027 449.5,875.5C 453.306,873.314 456.973,873.314 460.5,875.5C 462.249,873.469 464.249,873.135 466.5,874.5C 468.461,872.457 469.961,873.123 471,876.5C 472.255,875.789 473.421,874.956 474.5,874C 473.346,873.086 473.513,872.253 475,871.5C 475.333,872.167 475.667,872.833 476,873.5C 476.249,872.376 476.749,871.376 477.5,870.5C 477.833,872.5 478.167,874.5 478.5,876.5C 481.552,872.503 484.219,872.836 486.5,877.5C 486.61,875.902 486.943,874.235 487.5,872.5C 482.175,870.218 482.341,868.884 488,868.5C 520.806,868.505 553.306,868.505 585.5,868.5C 586.541,870.991 587.374,870.991 588,868.5C 588.317,870.301 588.984,870.634 590,869.5C 592.572,871.412 595.072,873.412 597.5,875.5C 599.541,876.236 601.541,877.069 603.5,878C 605.668,880.384 607.168,882.884 608,885.5C 608.333,885.167 608.667,884.833 609,884.5C 609.71,885.973 610.876,886.64 612.5,886.5C 612.338,888.527 612.505,890.527 613,892.5C 613.782,895.073 615.282,897.073 617.5,898.5C 618.331,905.811 618.831,913.144 619,920.5C 620.718,922.202 620.885,924.035 619.5,926C 620.249,927.734 620.749,929.567 621,931.5C 621.333,931.167 621.667,930.833 622,930.5C 622.667,937.167 622.667,943.833 622,950.5C 621.667,945.167 621.333,939.833 621,934.5C 619.98,946.75 620.48,958.917 622.5,971C 622.088,975.21 621.421,979.376 620.5,983.5C 619.914,983.291 619.414,982.957 619,982.5C 618.833,990.833 618.667,999.167 618.5,1007.5C 618.529,1016.33 619.196,1025 620.5,1033.5C 617.083,1040.08 617.083,1046.75 620.5,1053.5C 619.579,1055.13 618.745,1056.8 618,1058.5C 617.667,1058.17 617.333,1057.83 617,1057.5C 616.263,1063.14 614.763,1068.47 612.5,1073.5C 609.455,1073.7 606.621,1073.7 604,1073.5C 601.453,1074.47 599.953,1076.31 599.5,1079C 596.584,1079.05 595.584,1080.22 596.5,1082.5C 592.518,1083.3 588.518,1083.96 584.5,1084.5C 583.446,1084.32 582.446,1083.99 581.5,1083.5C 580.663,1085.84 579.329,1087.84 577.5,1089.5C 576.304,1089.15 576.304,1088.65 577.5,1088C 576.552,1087.52 575.552,1087.35 574.5,1087.5C 573.344,1092.41 570.678,1093.41 566.5,1090.5C 565.833,1090.83 565.167,1091.17 564.5,1091.5C 557.198,1089.95 549.865,1088.61 542.5,1087.5C 517.887,1087.92 493.22,1087.92 468.5,1087.5C 467.784,1088.31 466.95,1088.98 466,1089.5C 449.918,1089.69 433.751,1089.36 417.5,1088.5C 401.867,1089.15 386.2,1089.82 370.5,1090.5C 370.167,1091.5 369.5,1092.17 368.5,1092.5C 367.289,1091.73 367.289,1090.89 368.5,1090C 367.101,1089.41 365.768,1089.57 364.5,1090.5C 361.175,1090.04 357.842,1089.04 354.5,1087.5C 354.992,1083.71 354.159,1083.04 352,1085.5C 349.827,1083.1 347.494,1083.1 345,1085.5C 344.355,1084.35 343.522,1083.35 342.5,1082.5C 344.973,1082.32 346.306,1080.66 346.5,1077.5C 344.362,1077.3 342.695,1076.3 341.5,1074.5C 340.833,1075.5 340.167,1076.5 339.5,1077.5C 336.16,1074.79 332.826,1072.12 329.5,1069.5C 328.866,1067.43 327.866,1065.6 326.5,1064C 328.286,1063.8 329.619,1062.97 330.5,1061.5C 329.313,1061.45 327.98,1061.11 326.5,1060.5C 329.048,1058.78 328.715,1057.45 325.5,1056.5C 325.569,1054.72 325.903,1052.89 326.5,1051C 325.207,1050.51 323.873,1050.34 322.5,1050.5C 322.33,1049.18 322.663,1048.01 323.5,1047C 322.552,1046.52 321.552,1046.35 320.5,1046.5C 321.164,1044.13 322.497,1042.13 324.5,1040.5C 325.167,1042.17 325.833,1043.83 326.5,1045.5C 326.877,1043.21 326.877,1041.04 326.5,1039C 327.893,1037.83 328.727,1036.33 329,1034.5C 329.667,1035.83 330.333,1035.83 331,1034.5C 331.684,1033.22 331.517,1032.05 330.5,1031C 331.167,1030.67 331.833,1030.33 332.5,1030C 331.062,1029.78 329.729,1029.28 328.5,1028.5C 330.426,1027.21 332.759,1025.71 335.5,1024C 335.167,1023.67 334.833,1023.33 334.5,1023C 338.614,1021.23 338.447,1020.39 334,1020.5C 331.657,1020.68 329.824,1021.68 328.5,1023.5C 328.167,1023.33 327.833,1023.17 327.5,1023C 328.09,1021.49 328.756,1019.99 329.5,1018.5C 332.438,1019.57 335.438,1019.74 338.5,1019C 336.285,1018.83 334.285,1018.16 332.5,1017C 333.167,1016.67 333.833,1016.33 334.5,1016C 332.822,1013.14 331.822,1009.98 331.5,1006.5C 332.833,1005.83 334.167,1005.17 335.5,1004.5C 334.145,1003.32 334.312,1002.32 336,1001.5C 336.333,1001.83 336.667,1002.17 337,1002.5C 337.538,1006.46 337.871,1010.46 338,1014.5C 338.992,1011.34 340.825,1008.84 343.5,1007C 341.687,1007.05 340.021,1006.88 338.5,1006.5C 341.212,1005.77 343.879,1004.94 346.5,1004C 342.728,1003.39 342.728,1002.39 346.5,1001C 343.775,999.805 341.109,999.472 338.5,1000C 340.081,999.293 341.581,998.46 343,997.5C 344.037,991.246 346.204,990.913 349.5,996.5C 350.478,996.023 351.311,995.357 352,994.5C 352.783,996.433 352.283,997.933 350.5,999C 353.43,999.844 356.096,1001.18 358.5,1003C 355.999,1004.42 356.332,1005.42 359.5,1006C 357.5,1006.67 355.5,1006.67 353.5,1006C 353.201,1004.68 353.034,1003.18 353,1001.5C 351.978,1002.35 351.145,1003.35 350.5,1004.5C 352.592,1007.68 354.925,1010.68 357.5,1013.5C 357.098,1011.63 357.098,1009.63 357.5,1007.5C 358.833,1008.83 360.167,1008.83 361.5,1007.5C 363.884,1009.05 366.384,1010.38 369,1011.5C 369.383,1013.04 370.216,1014.37 371.5,1015.5C 372.532,1013.96 373.865,1013.46 375.5,1014C 374.269,1015.18 374.269,1016.35 375.5,1017.5C 377.394,1016.4 378.061,1015.07 377.5,1013.5C 381.535,1014.06 385.535,1013.4 389.5,1011.5C 391.306,1012.86 392.806,1012.53 394,1010.5C 396.808,1013.5 398.141,1012.83 398,1008.5C 401.737,1006.7 403.737,1003.7 404,999.5C 406.44,997.726 408.106,995.392 409,992.5C 410.871,990.935 412.704,990.269 414.5,990.5C 412.525,989.725 411.691,988.391 412,986.5C 412.667,987.167 413.333,987.833 414,988.5C 415.115,987 415.948,985.333 416.5,983.5C 415.558,974.895 415.558,966.395 416.5,958C 417.428,956.024 418.595,954.191 420,952.5C 423.893,956.464 424.393,955.964 421.5,951C 419.866,950.506 418.199,950.34 416.5,950.5C 416.5,949.167 416.5,947.833 416.5,946.5C 417.822,946.33 418.989,946.663 420,947.5C 419.872,945.555 420.038,943.722 420.5,942C 418.598,941.801 417.098,940.967 416,939.5C 415.085,940.328 414.419,941.328 414,942.5C 414.324,935.047 412.324,928.38 408,922.5C 407.805,920.793 407.805,919.126 408,917.5C 405.763,916.944 403.763,915.944 402,914.5C 401.667,914.833 401.333,915.167 401,915.5C 399.727,913.428 397.893,912.095 395.5,911.5C 393.93,911.694 392.43,911.694 391,911.5C 385.499,905.135 378.666,903.135 370.5,905.5C 373.785,906.324 377.118,906.824 380.5,907C 381.755,909.46 383.755,910.627 386.5,910.5C 386.5,911.833 386.5,913.167 386.5,914.5C 389.014,914.754 391.348,915.587 393.5,917C 392.748,917.671 392.414,918.504 392.5,919.5 Z"/></g>
<g><path style="opacity:1" fill="#121722" d="M 644.5,821.5 C 646.199,821.34 647.866,821.506 649.5,822C 650.977,824.148 652.977,825.482 655.5,826C 656.109,827.948 656.776,829.782 657.5,831.5C 660.053,837.603 663.386,843.27 667.5,848.5C 667.291,849.086 666.957,849.586 666.5,850C 671.48,857.422 673.813,865.422 673.5,874C 674.257,875.512 675.257,876.846 676.5,878C 674.036,882.696 674.369,887.029 677.5,891C 676.216,892.297 676.383,893.464 678,894.5C 678.261,898.706 678.761,902.873 679.5,907C 679.204,912.606 678.871,918.106 678.5,923.5C 680.715,959.497 680.881,995.497 679,1031.5C 677.289,1038.21 676.623,1044.88 677,1051.5C 675.242,1052.47 674.742,1053.64 675.5,1055C 674.833,1056.33 674.167,1057.67 673.5,1059C 674.38,1060.36 674.714,1061.86 674.5,1063.5C 673.167,1063.5 671.833,1063.5 670.5,1063.5C 670.433,1065.4 670.767,1067.23 671.5,1069C 669.607,1070.75 668.274,1072.42 667.5,1074C 667.616,1075.27 667.949,1076.6 668.5,1078C 666.981,1079.35 665.648,1080.85 664.5,1082.5C 665.167,1083.17 665.833,1083.83 666.5,1084.5C 665.14,1088.42 663.306,1092.09 661,1095.5C 659.796,1094.53 659.296,1093.53 659.5,1092.5C 658.165,1094.2 656.832,1095.87 655.5,1097.5C 663.794,1080.71 669.294,1063.04 672,1044.5C 672.667,992.5 672.667,940.5 672,888.5C 672.079,862.207 662.912,839.873 644.5,821.5 Z"/></g>
<g><path style="opacity:1" fill="#0285ee" d="M 1802.5,917.5 C 1853.3,916.502 1888.8,939.169 1909,985.5C 1921.51,1024.05 1918.18,1061.05 1899,1096.5C 1871.34,1135.4 1833.84,1150.23 1786.5,1141C 1749.47,1129.97 1724.97,1106.14 1713,1069.5C 1701.28,1030.45 1706.28,993.781 1728,959.5C 1746.97,935.263 1771.8,921.263 1802.5,917.5 Z M 1801.5,970.5 C 1828.42,967.535 1847.58,978.202 1859,1002.5C 1861.98,1012.59 1864.15,1022.76 1865.5,1033C 1863.88,1046.65 1859.71,1059.49 1853,1071.5C 1839.38,1090.22 1821.22,1097.05 1798.5,1092C 1786.99,1087.82 1777.82,1080.65 1771,1070.5C 1760.89,1053.92 1757.56,1035.92 1761,1016.5C 1765.17,992.84 1778.67,977.506 1801.5,970.5 Z"/></g>
<g><path style="opacity:1" fill="#0186ee" d="M 1089.5,921.5 C 1147.02,932.476 1169.52,966.809 1157,1024.5C 1151.97,1040.02 1142.14,1051.36 1127.5,1058.5C 1125.97,1055.98 1123.64,1054.98 1120.5,1055.5C 1117.37,1063.83 1118.37,1071.66 1123.5,1079C 1121.24,1078.56 1118.91,1078.06 1116.5,1077.5C 1116.29,1075.08 1116.63,1072.75 1117.5,1070.5C 1115.61,1066.53 1114.61,1066.86 1114.5,1071.5C 1110.37,1071.47 1106.37,1070.8 1102.5,1069.5C 1102.5,1067.5 1102.5,1065.5 1102.5,1063.5C 1098.49,1063.33 1094.49,1063.5 1090.5,1064C 1089.29,1065.11 1089.29,1066.28 1090.5,1067.5C 1089.96,1069.27 1089.13,1069.6 1088,1068.5C 1087.67,1069.83 1087.33,1071.17 1087,1072.5C 1085.6,1071.77 1084.1,1071.27 1082.5,1071C 1085.17,1069.67 1087.17,1067.67 1088.5,1065C 1086.98,1063.99 1085.31,1063.49 1083.5,1063.5C 1083.81,1065.23 1083.98,1066.89 1084,1068.5C 1082.49,1069.09 1080.99,1069.76 1079.5,1070.5C 1081.08,1073.42 1080.75,1076.09 1078.5,1078.5C 1081.25,1080.84 1081.59,1083.17 1079.5,1085.5C 1075.86,1080.34 1072.36,1075.01 1069,1069.5C 1067.96,1068.29 1066.79,1067.29 1065.5,1066.5C 1066.06,1065.21 1067.06,1064.38 1068.5,1064C 1062.17,1063.33 1055.83,1063.33 1049.5,1064C 1050.5,1086.77 1050.5,1109.6 1049.5,1132.5C 1048.17,1132.5 1046.83,1132.5 1045.5,1132.5C 1045.5,1133.5 1045.5,1134.5 1045.5,1135.5C 1032.97,1135.31 1020.31,1135.14 1007.5,1135C 1006.5,1134.5 1005.5,1134 1004.5,1133.5C 1003.17,1064.5 1003.17,995.5 1004.5,926.5C 1033.01,924.685 1061.68,923.852 1090.5,924C 1089.75,923.329 1089.41,922.496 1089.5,921.5 Z M 1050.5,971.5 C 1063.5,971.333 1076.5,971.5 1089.5,972C 1106.08,976.643 1112.25,987.476 1108,1004.5C 1104.85,1014.34 1098.01,1019.18 1087.5,1019C 1075.46,1019.46 1063.63,1019.62 1052,1019.5C 1051.77,1003.48 1051.27,987.476 1050.5,971.5 Z"/></g>
<g><path style="opacity:1" fill="#0286ee" d="M 1420.5,920.5 C 1433.65,920.974 1446.99,921.807 1460.5,923C 1510.01,935.792 1530.51,967.625 1522,1018.5C 1512.39,1048.1 1492.23,1065.6 1461.5,1071C 1445.5,1071.5 1429.5,1071.67 1413.5,1071.5C 1413.67,1091.84 1413.5,1112.17 1413,1132.5C 1408.53,1137.01 1403.03,1139.51 1396.5,1140C 1383.77,1142.22 1371.93,1140.05 1361,1133.5C 1361.03,1065.5 1360.69,997.502 1360,929.5C 1361.08,926.087 1363.24,923.587 1366.5,922C 1384.67,921.832 1402.67,921.332 1420.5,920.5 Z M 1410.5,970.5 C 1423.17,970.333 1435.84,970.5 1448.5,971C 1467.44,974.578 1475.27,985.745 1472,1004.5C 1468.2,1014.64 1461.03,1020.8 1450.5,1023C 1437.5,1023.5 1424.5,1023.67 1411.5,1023.5C 1411.64,1005.73 1411.3,988.06 1410.5,970.5 Z"/></g>
<g><path style="opacity:1" fill="#028ef5" d="M 534.5,989.5 C 532.832,987.66 531.332,985.66 530,983.5C 529.333,965.833 529.333,948.167 530,930.5C 531.139,927.177 532.973,924.51 535.5,922.5C 538.896,921.405 541.896,919.572 544.5,917C 553.621,915.894 561.288,918.727 567.5,925.5C 571.27,945.112 571.437,964.779 568,984.5C 564.057,990.969 558.391,994.969 551,996.5C 545.195,994.015 539.695,991.682 534.5,989.5 Z"/></g>
<g><path style="opacity:1" fill="#0786ee" d="M 869.5,1134.5 C 864.886,1137.05 860.219,1137.05 855.5,1134.5C 847.811,1134.32 839.977,1134.65 832,1135.5C 828.884,1135.72 826.05,1135.05 823.5,1133.5C 822.667,1086.84 822.167,1040.17 822,993.5C 820.68,975.65 820.013,957.65 820,939.5C 819.589,947.568 818.423,955.234 816.5,962.5C 816.333,950.829 816.5,939.162 817,927.5C 818.122,925.376 819.622,923.543 821.5,922C 849.149,920.481 876.816,920.147 904.5,921C 962.663,931.183 986.163,965.35 975,1023.5C 963.75,1051.22 943.25,1067.05 913.5,1071C 899.155,1071.17 884.822,1071.67 870.5,1072.5C 871.653,1090.79 871.82,1109.12 871,1127.5C 870.338,1129.81 869.838,1132.15 869.5,1134.5 Z M 868.5,970.5 C 880.171,970.333 891.838,970.5 903.5,971C 923.427,976.008 930.594,988.508 925,1008.5C 920.321,1016.42 913.488,1021.25 904.5,1023C 892.505,1023.5 880.505,1023.67 868.5,1023.5C 869.711,1005.82 869.711,988.153 868.5,970.5 Z"/></g>
<g><path style="opacity:1" fill="#0285ef" d="M 1687.5,1137.5 C 1686.13,1136.69 1684.8,1135.69 1683.5,1134.5C 1635.54,1135.5 1587.54,1135.83 1539.5,1135.5C 1538.43,1128.6 1537.1,1128.26 1535.5,1134.5C 1533.95,1128.41 1533.28,1122.08 1533.5,1115.5C 1533.67,1110.83 1533.83,1106.17 1534,1101.5C 1562.87,1058.27 1592.37,1015.43 1622.5,973C 1597.83,972.667 1573.17,972.333 1548.5,972C 1542.33,971.167 1538.83,967.667 1538,961.5C 1537.06,949.762 1537.4,938.095 1539,926.5C 1540.93,925.12 1542.76,923.62 1544.5,922C 1594.5,921.333 1644.5,921.333 1694.5,922C 1695,922.5 1695.5,923 1696,923.5C 1696.17,929.167 1696.33,934.833 1696.5,940.5C 1696.63,946.937 1696.13,953.27 1695,959.5C 1663.12,1002.77 1631.62,1046.27 1600.5,1090C 1629.23,1090.02 1657.89,1090.69 1686.5,1092C 1690.04,1093.91 1692.54,1096.74 1694,1100.5C 1694.67,1110.5 1694.67,1120.5 1694,1130.5C 1692.99,1134.01 1690.82,1136.34 1687.5,1137.5 Z"/></g>
<g><path style="opacity:1" fill="#0389f2" d="M 1311.5,1006.5 C 1316.67,1008.85 1319.84,1012.85 1321,1018.5C 1321.67,1026.17 1321.67,1033.83 1321,1041.5C 1317.83,1050.01 1311.66,1053.84 1302.5,1053C 1282.15,1053.18 1261.81,1053.85 1241.5,1055C 1242.23,1056.4 1242.73,1057.9 1243,1059.5C 1243.82,1069.41 1243.65,1079.24 1242.5,1089C 1271.8,1088.37 1301.13,1088.37 1330.5,1089C 1334.26,1090.46 1337.09,1092.96 1339,1096.5C 1339.67,1106.83 1339.67,1117.17 1339,1127.5C 1338.12,1130.4 1336.96,1133.07 1335.5,1135.5C 1335.72,1134.32 1335.39,1133.32 1334.5,1132.5C 1332.73,1133.94 1330.73,1134.94 1328.5,1135.5C 1288.32,1135.8 1248.15,1135.46 1208,1134.5C 1206.3,1135.73 1204.3,1136.4 1202,1136.5C 1200.17,1136.33 1198.33,1136.17 1196.5,1136C 1196.96,1135.59 1197.29,1135.09 1197.5,1134.5C 1196.18,1119.99 1195.52,1105.32 1195.5,1090.5C 1195.91,1051.31 1196.58,1012.31 1197.5,973.5C 1197.18,969.383 1196.18,965.549 1194.5,962C 1194.37,958.536 1194.71,955.203 1195.5,952C 1193.76,942.967 1193.09,933.8 1193.5,924.5C 1225.51,924.167 1257.51,924.5 1289.5,925.5C 1299.67,925.965 1309,926.965 1317.5,928.5C 1320.16,928.31 1322.66,927.643 1325,926.5C 1326.99,927.819 1328.15,929.653 1328.5,932C 1328.23,938.614 1327.56,945.28 1326.5,952C 1327.59,954.064 1327.76,956.231 1327,958.5C 1326.36,956.697 1325.2,955.364 1323.5,954.5C 1323.68,957.259 1323.18,959.925 1322,962.5C 1321.75,961.376 1321.25,960.376 1320.5,959.5C 1320.29,963.552 1318.29,965.052 1314.5,964C 1315.71,963.107 1315.71,962.274 1314.5,961.5C 1313.75,962.376 1313.25,963.376 1313,964.5C 1309.54,965.747 1306.04,965.747 1302.5,964.5C 1301.28,965.263 1300.28,966.263 1299.5,967.5C 1299.51,966.559 1299.01,965.892 1298,965.5C 1294.62,966.534 1291.46,966.034 1288.5,964C 1292.5,963.667 1296.5,963.333 1300.5,963C 1286.79,962.815 1273.29,962.648 1260,962.5C 1258.94,962.63 1258.11,963.13 1257.5,964C 1258.83,964.333 1260.17,964.667 1261.5,965C 1260.33,965.419 1259.33,966.085 1258.5,967C 1251.55,968.163 1244.55,968.663 1237.5,968.5C 1237.34,970.199 1237.51,971.866 1238,973.5C 1238.33,973.167 1238.67,972.833 1239,972.5C 1239.5,984.162 1239.67,995.829 1239.5,1007.5C 1263.26,1007.1 1286.93,1007.6 1310.5,1009C 1311.25,1008.33 1311.59,1007.5 1311.5,1006.5 Z"/></g>
<g><path style="opacity:1" fill="#018ef7" d="M 362.5,934.5 C 362.259,932.102 362.926,930.102 364.5,928.5C 367.85,925.496 371.517,922.829 375.5,920.5C 387.565,916.869 395.732,920.869 400,932.5C 401.813,950.073 401.313,967.573 398.5,985C 394.473,995.272 387.14,998.439 376.5,994.5C 374.446,992.806 372.112,991.639 369.5,991C 368.89,989.053 368.057,987.219 367,985.5C 366.692,986.308 366.192,986.975 365.5,987.5C 362.935,982.473 361.602,977.139 361.5,971.5C 362.395,959.184 362.729,946.851 362.5,934.5 Z"/></g>
<g><path style="opacity:1" fill="#018ff7" d="M 704.5,922.5 C 706.853,923.34 708.853,924.674 710.5,926.5C 710.854,929.421 709.854,931.754 707.5,933.5C 708.689,934.429 710.022,934.762 711.5,934.5C 711.351,933.448 711.517,932.448 712,931.5C 715.51,936.013 715.677,940.346 712.5,944.5C 713.154,946.115 713.654,947.782 714,949.5C 714.333,949.167 714.667,948.833 715,948.5C 715.667,968.5 715.667,988.5 715,1008.5C 714.428,1013.4 713.261,1018.06 711.5,1022.5C 710.311,1023.43 708.978,1023.76 707.5,1023.5C 707.833,1026.5 706.5,1027.83 703.5,1027.5C 703.5,1028.5 703.5,1029.5 703.5,1030.5C 702.167,1030.5 700.833,1030.5 699.5,1030.5C 699.5,994.5 699.5,958.5 699.5,922.5C 701.167,922.5 702.833,922.5 704.5,922.5 Z"/></g>
<g><path style="opacity:1" fill="#0592f7" d="M 227.5,1031.5 C 224.217,1030.86 221.551,1029.19 219.5,1026.5C 217.435,1022.79 215.435,1019.13 213.5,1015.5C 213.5,990.5 213.5,965.5 213.5,940.5C 213.304,936.394 214.637,933.061 217.5,930.5C 220.423,928.585 223.09,926.251 225.5,923.5C 227.396,922.534 229.396,922.201 231.5,922.5C 231.5,958.833 231.5,995.167 231.5,1031.5C 230.167,1031.5 228.833,1031.5 227.5,1031.5 Z"/></g>
<g><path style="opacity:1" fill="#0a0e18" d="M 357.5,862.5 C 354.67,863.735 351.67,864.735 348.5,865.5C 348.5,866.5 348.5,867.5 348.5,868.5C 346.143,868.337 343.81,868.503 341.5,869C 341.833,869.333 342.167,869.667 342.5,870C 341.675,871.688 340.675,871.855 339.5,870.5C 337.538,875.977 333.871,877.977 328.5,876.5C 328.5,877.833 328.5,879.167 328.5,880.5C 326.738,880.357 325.071,880.691 323.5,881.5C 322.682,884.107 322.182,886.774 322,889.5C 321.667,889.167 321.333,888.833 321,888.5C 319.119,892.975 316.953,897.308 314.5,901.5C 313.675,902.386 312.675,902.719 311.5,902.5C 312.195,917.881 312.528,933.381 312.5,949C 312,949.5 311.5,950 311,950.5C 310.821,961.077 310.321,971.577 309.5,982C 310.763,997.439 310.763,1012.94 309.5,1028.5C 309.781,1036.97 310.948,1045.3 313,1053.5C 313.689,1054.36 314.522,1055.02 315.5,1055.5C 316.378,1059.59 317.545,1063.59 319,1067.5C 323.198,1070.7 326.698,1074.53 329.5,1079C 334.756,1081.59 339.756,1084.59 344.5,1088C 349.27,1089.22 353.936,1090.72 358.5,1092.5C 360.184,1093.15 361.517,1094.15 362.5,1095.5C 335.583,1090.75 317.75,1075.42 309,1049.5C 307.119,1039.42 306.285,1029.26 306.5,1019C 306.972,979.801 308.138,940.635 310,901.5C 315.488,884.846 326.321,873.18 342.5,866.5C 347.29,864.347 352.29,863.014 357.5,862.5 Z"/></g>
<g><path style="opacity:1" fill="#159ceb" d="M 227.5,1031.5 C 228.833,1031.5 230.167,1031.5 231.5,1031.5C 231.5,995.167 231.5,958.833 231.5,922.5C 229.396,922.201 227.396,922.534 225.5,923.5C 223.09,926.251 220.423,928.585 217.5,930.5C 220.782,923.899 226.115,919.899 233.5,918.5C 233.5,956.833 233.5,995.167 233.5,1033.5C 231.102,1033.74 229.102,1033.07 227.5,1031.5 Z"/></g>
<g><path style="opacity:1" fill="#1b95e6" d="M 392.5,919.5 C 398.058,923.066 401.725,928.066 403.5,934.5C 403.113,950.499 402.78,966.499 402.5,982.5C 395.845,999.692 384.512,1003.86 368.5,995C 364.308,991.33 361.642,986.83 360.5,981.5C 360.333,969.162 360.5,956.829 361,944.5C 361.179,940.975 361.679,937.641 362.5,934.5C 362.729,946.851 362.395,959.184 361.5,971.5C 361.602,977.139 362.935,982.473 365.5,987.5C 366.192,986.975 366.692,986.308 367,985.5C 368.057,987.219 368.89,989.053 369.5,991C 372.112,991.639 374.446,992.806 376.5,994.5C 387.14,998.439 394.473,995.272 398.5,985C 401.313,967.573 401.813,950.073 400,932.5C 395.732,920.869 387.565,916.869 375.5,920.5C 371.517,922.829 367.85,925.496 364.5,928.5C 364.709,927.078 365.209,925.745 366,924.5C 373.658,917.264 382.492,915.597 392.5,919.5 Z"/></g>
<g><path style="opacity:1" fill="#133363" d="M 403.5,934.5 C 404.166,942.326 404.5,950.326 404.5,958.5C 404.498,966.862 403.831,974.862 402.5,982.5C 402.78,966.499 403.113,950.499 403.5,934.5 Z"/></g>
<g><path style="opacity:1" fill="#138de2" d="M 704.5,922.5 C 702.833,922.5 701.167,922.5 699.5,922.5C 699.5,958.5 699.5,994.5 699.5,1030.5C 700.833,1030.5 702.167,1030.5 703.5,1030.5C 703.5,1029.5 703.5,1028.5 703.5,1027.5C 706.5,1027.83 707.833,1026.5 707.5,1023.5C 708.978,1023.76 710.311,1023.43 711.5,1022.5C 713.261,1018.06 714.428,1013.4 715,1008.5C 715.667,988.5 715.667,968.5 715,948.5C 714.667,948.833 714.333,949.167 714,949.5C 713.654,947.782 713.154,946.115 712.5,944.5C 715.677,940.346 715.51,936.013 712,931.5C 711.517,932.448 711.351,933.448 711.5,934.5C 710.022,934.762 708.689,934.429 707.5,933.5C 709.854,931.754 710.854,929.421 710.5,926.5C 713.389,929.256 715.556,932.589 717,936.5C 717.667,962.833 717.667,989.167 717,1015.5C 713.461,1024.88 706.961,1030.88 697.5,1033.5C 697.5,995.167 697.5,956.833 697.5,918.5C 700.326,918.998 702.66,920.331 704.5,922.5 Z"/></g>
<g><path style="opacity:1" fill="#1c90d9" d="M 534.5,989.5 C 539.695,991.682 545.195,994.015 551,996.5C 558.391,994.969 564.057,990.969 568,984.5C 571.437,964.779 571.27,945.112 567.5,925.5C 561.288,918.727 553.621,915.894 544.5,917C 541.896,919.572 538.896,921.405 535.5,922.5C 540.438,915.88 547.105,913.38 555.5,915C 564.105,917.938 569.605,923.771 572,932.5C 572.667,947.5 572.667,962.5 572,977.5C 567.459,995.436 556.626,1001.27 539.5,995C 537.627,993.296 535.96,991.463 534.5,989.5 Z"/></g>
<g><path style="opacity:1" fill="#041238" d="M 213.5,940.5 C 213.5,965.5 213.5,990.5 213.5,1015.5C 212.168,1003.35 211.501,990.852 211.5,978C 211.501,965.148 212.168,952.648 213.5,940.5 Z"/></g>
<g><path style="opacity:0.996" fill="#137ed5" d="M 1089.5,921.5 C 1089.41,922.496 1089.75,923.329 1090.5,924C 1061.68,923.852 1033.01,924.685 1004.5,926.5C 1003.17,995.5 1003.17,1064.5 1004.5,1133.5C 1005.5,1134 1006.5,1134.5 1007.5,1135C 1020.31,1135.14 1032.97,1135.31 1045.5,1135.5C 1045.5,1134.5 1045.5,1133.5 1045.5,1132.5C 1046.83,1132.5 1048.17,1132.5 1049.5,1132.5C 1050.5,1109.6 1050.5,1086.77 1049.5,1064C 1055.83,1063.33 1062.17,1063.33 1068.5,1064C 1067.06,1064.38 1066.06,1065.21 1065.5,1066.5C 1061.41,1066.86 1057.41,1066.86 1053.5,1066.5C 1052.25,1085.5 1052.25,1104.5 1053.5,1123.5C 1054.86,1131.44 1051.86,1136.61 1044.5,1139C 1032.54,1140.5 1020.54,1140.84 1008.5,1140C 1005.73,1138.53 1003.23,1136.7 1001,1134.5C 1000.49,1064.85 1000.49,995.185 1001,925.5C 1001.96,924.421 1002.79,923.255 1003.5,922C 1032.16,921.5 1060.83,921.333 1089.5,921.5 Z"/></g>
<g><path style="opacity:1" fill="#078ef1" d="M 435.5,1027.5 C 436.873,1027.34 438.207,1027.51 439.5,1028C 445.913,1032.07 452.579,1035.73 459.5,1039C 465.167,1039.67 470.833,1039.67 476.5,1039C 483.584,1035.62 490.584,1031.96 497.5,1028C 503.374,1026.6 508.374,1028.1 512.5,1032.5C 513.544,1034.77 513.711,1037.1 513,1039.5C 510.262,1045.07 506.095,1049.07 500.5,1051.5C 494.958,1053.43 489.291,1055.1 483.5,1056.5C 472.833,1057.83 462.167,1057.83 451.5,1056.5C 446.062,1053.95 440.729,1051.11 435.5,1048C 430.635,1047.13 426.802,1044.63 424,1040.5C 419.566,1029.42 423.399,1025.08 435.5,1027.5 Z"/></g>
<g><path style="opacity:0.985" fill="#1584d8" d="M 869.5,1134.5 C 867.388,1137.06 864.721,1138.9 861.5,1140C 850.5,1140.67 839.5,1140.67 828.5,1140C 825.136,1138.9 821.97,1137.4 819,1135.5C 817.95,1129.05 817.45,1122.55 817.5,1116C 817.585,1109.71 817.918,1103.71 818.5,1098C 817.826,1052.86 817.159,1007.7 816.5,962.5C 818.423,955.234 819.589,947.568 820,939.5C 820.013,957.65 820.68,975.65 822,993.5C 822.167,1040.17 822.667,1086.84 823.5,1133.5C 826.05,1135.05 828.884,1135.72 832,1135.5C 839.977,1134.65 847.811,1134.32 855.5,1134.5C 860.219,1137.05 864.886,1137.05 869.5,1134.5 Z"/></g>
<g><path style="opacity:1" fill="#1497ec" d="M 435.5,1027.5 C 423.399,1025.08 419.566,1029.42 424,1040.5C 426.802,1044.63 430.635,1047.13 435.5,1048C 440.729,1051.11 446.062,1053.95 451.5,1056.5C 462.167,1057.83 472.833,1057.83 483.5,1056.5C 489.291,1055.1 494.958,1053.43 500.5,1051.5C 495.294,1054.74 489.627,1057.24 483.5,1059C 470.035,1060.16 456.702,1059.5 443.5,1057C 433.256,1053.42 425.423,1046.92 420,1037.5C 418.662,1032.99 419.829,1029.33 423.5,1026.5C 427.789,1024.94 431.789,1025.28 435.5,1027.5 Z"/></g>
<g><path style="opacity:1" fill="#0383f0" d="M 1127.5,1058.5 C 1125.86,1059.66 1124.2,1060.82 1122.5,1062C 1136.7,1081.57 1150.54,1101.4 1164,1121.5C 1170.15,1131.39 1167.32,1136.89 1155.5,1138C 1142.17,1138.67 1128.83,1138.67 1115.5,1138C 1103.12,1120.73 1091.12,1103.23 1079.5,1085.5C 1081.59,1083.17 1081.25,1080.84 1078.5,1078.5C 1080.75,1076.09 1081.08,1073.42 1079.5,1070.5C 1080.99,1069.76 1082.49,1069.09 1084,1068.5C 1083.98,1066.89 1083.81,1065.23 1083.5,1063.5C 1085.31,1063.49 1086.98,1063.99 1088.5,1065C 1087.17,1067.67 1085.17,1069.67 1082.5,1071C 1084.1,1071.27 1085.6,1071.77 1087,1072.5C 1087.33,1071.17 1087.67,1069.83 1088,1068.5C 1089.13,1069.6 1089.96,1069.27 1090.5,1067.5C 1089.29,1066.28 1089.29,1065.11 1090.5,1064C 1094.49,1063.5 1098.49,1063.33 1102.5,1063.5C 1102.5,1065.5 1102.5,1067.5 1102.5,1069.5C 1106.37,1070.8 1110.37,1071.47 1114.5,1071.5C 1114.61,1066.86 1115.61,1066.53 1117.5,1070.5C 1116.63,1072.75 1116.29,1075.08 1116.5,1077.5C 1118.91,1078.06 1121.24,1078.56 1123.5,1079C 1118.37,1071.66 1117.37,1063.83 1120.5,1055.5C 1123.64,1054.98 1125.97,1055.98 1127.5,1058.5 Z"/></g>
<g><path style="opacity:0.754" fill="#090c19" d="M 743.5,977.5 C 743.817,991.534 743.317,1005.53 742,1019.5C 735.793,1041.88 721.293,1054.88 698.5,1058.5C 694.795,1091.08 681.128,1118.58 657.5,1141C 644.46,1151.02 630.127,1158.69 614.5,1164C 648.796,1178.3 677.296,1200.13 700,1229.5C 724.111,1268.7 734.778,1311.36 732,1357.5C 729.85,1362.82 726.017,1366.15 720.5,1367.5C 719.282,1366.84 717.949,1366.17 716.5,1365.5C 719.128,1363.51 721.795,1361.51 724.5,1359.5C 730.209,1323.46 725.376,1288.12 710,1253.5C 703.323,1244.82 697.656,1235.48 693,1225.5C 690.265,1222.43 687.265,1219.76 684,1217.5C 678.166,1209.16 670.999,1202.16 662.5,1196.5C 661.353,1196.82 660.519,1197.48 660,1198.5C 658.915,1197.71 657.748,1197.04 656.5,1196.5C 651.735,1193.48 647.735,1189.64 644.5,1185C 639.213,1182.09 633.547,1180.26 627.5,1179.5C 626.396,1178.37 626.729,1177.54 628.5,1177C 626.074,1177.05 623.741,1176.88 621.5,1176.5C 620.193,1175.18 618.693,1174.18 617,1173.5C 616.517,1172.55 616.351,1171.55 616.5,1170.5C 612.465,1171.28 609.799,1169.78 608.5,1166C 609.411,1162.62 611.078,1159.62 613.5,1157C 617.869,1156.41 621.703,1154.24 625,1150.5C 625.388,1151.43 626.055,1152.09 627,1152.5C 630.031,1150.76 633.197,1149.26 636.5,1148C 637.726,1146.37 639.059,1144.87 640.5,1143.5C 644.378,1145.21 646.545,1143.54 647,1138.5C 647.333,1138.83 647.667,1139.17 648,1139.5C 649.583,1137.94 651.416,1136.78 653.5,1136C 654.337,1134.99 654.67,1133.82 654.5,1132.5C 658.837,1131.66 661.337,1128.99 662,1124.5C 667.386,1121.15 672.386,1116.82 677,1111.5C 686.384,1094.32 692.55,1075.99 695.5,1056.5C 701.248,1055.32 706.915,1053.82 712.5,1052C 714.439,1051.09 715.439,1049.59 715.5,1047.5C 716.552,1047.65 717.552,1047.48 718.5,1047C 721.266,1042.73 724.599,1038.9 728.5,1035.5C 729.228,1032.79 730.061,1030.12 731,1027.5C 731.249,1028.62 731.749,1029.62 732.5,1030.5C 734.96,1026.58 737.127,1022.58 739,1018.5C 739.333,995.833 739.667,973.167 740,950.5C 740.333,965.5 740.667,980.5 741,995.5C 741.333,995.833 741.667,996.167 742,996.5C 742.172,989.987 742.672,983.653 743.5,977.5 Z"/></g>
<g><path style="opacity:0.533" fill="#1084e2" d="M 1311.5,1006.5 C 1311.59,1007.5 1311.25,1008.33 1310.5,1009C 1286.93,1007.6 1263.26,1007.1 1239.5,1007.5C 1239.67,995.829 1239.5,984.162 1239,972.5C 1238.67,972.833 1238.33,973.167 1238,973.5C 1237.51,971.866 1237.34,970.199 1237.5,968.5C 1244.55,968.663 1251.55,968.163 1258.5,967C 1259.33,966.085 1260.33,965.419 1261.5,965C 1260.17,964.667 1258.83,964.333 1257.5,964C 1258.11,963.13 1258.94,962.63 1260,962.5C 1273.29,962.648 1286.79,962.815 1300.5,963C 1296.5,963.333 1292.5,963.667 1288.5,964C 1291.46,966.034 1294.62,966.534 1298,965.5C 1299.01,965.892 1299.51,966.559 1299.5,967.5C 1300.28,966.263 1301.28,965.263 1302.5,964.5C 1306.04,965.747 1309.54,965.747 1313,964.5C 1313.25,963.376 1313.75,962.376 1314.5,961.5C 1315.71,962.274 1315.71,963.107 1314.5,964C 1318.29,965.052 1320.29,963.552 1320.5,959.5C 1321.25,960.376 1321.75,961.376 1322,962.5C 1323.18,959.925 1323.68,957.259 1323.5,954.5C 1325.2,955.364 1326.36,956.697 1327,958.5C 1327.76,956.231 1327.59,954.064 1326.5,952C 1327.56,945.28 1328.23,938.614 1328.5,932C 1328.15,929.653 1326.99,927.819 1325,926.5C 1322.66,927.643 1320.16,928.31 1317.5,928.5C 1309,926.965 1299.67,925.965 1289.5,925.5C 1257.51,924.5 1225.51,924.167 1193.5,924.5C 1193.09,933.8 1193.76,942.967 1195.5,952C 1194.71,955.203 1194.37,958.536 1194.5,962C 1196.18,965.549 1197.18,969.383 1197.5,973.5C 1196.58,1012.31 1195.91,1051.31 1195.5,1090.5C 1195.52,1105.32 1196.18,1119.99 1197.5,1134.5C 1197.29,1135.09 1196.96,1135.59 1196.5,1136C 1198.33,1136.17 1200.17,1136.33 1202,1136.5C 1204.3,1136.4 1206.3,1135.73 1208,1134.5C 1248.15,1135.46 1288.32,1135.8 1328.5,1135.5C 1330.73,1134.94 1332.73,1133.94 1334.5,1132.5C 1335.39,1133.32 1335.72,1134.32 1335.5,1135.5C 1332.28,1138.77 1328.28,1140.27 1323.5,1140C 1284.5,1140.67 1245.5,1140.67 1206.5,1140C 1201.07,1139.61 1196.24,1137.77 1192,1134.5C 1191.79,1102.16 1191.13,1069.82 1190,1037.5C 1189.33,1000.17 1189.33,962.833 1190,925.5C 1191.5,924.333 1193,923.167 1194.5,922C 1232.17,921.754 1269.84,921.254 1307.5,920.5C 1313.55,920.502 1319.55,921.002 1325.5,922C 1329.52,923.868 1331.69,927.035 1332,931.5C 1335.97,943.619 1334.97,955.286 1329,966.5C 1327.36,968.81 1325.2,970.31 1322.5,971C 1295.17,971.865 1267.84,972.365 1240.5,972.5C 1240.18,983.082 1240.51,993.582 1241.5,1004C 1263.17,1004.33 1284.83,1004.67 1306.5,1005C 1308.25,1005.35 1309.91,1005.85 1311.5,1006.5 Z"/></g>
<g><path style="opacity:1" fill="#0d1321" d="M 259.5,1047.5 C 261.161,1068.2 267.994,1086.86 280,1103.5C 291.445,1117.63 305.612,1127.97 322.5,1134.5C 316.976,1133.77 311.643,1132.43 306.5,1130.5C 306.719,1129.32 306.386,1128.32 305.5,1127.5C 302.692,1126.03 299.692,1125.2 296.5,1125C 295.257,1123.85 294.257,1122.51 293.5,1121C 291.152,1120.65 289.319,1119.49 288,1117.5C 287.667,1117.83 287.333,1118.17 287,1118.5C 279.855,1111.37 273.521,1103.7 268,1095.5C 267.618,1092.11 266.618,1089.45 265,1087.5C 264.097,1086.3 262.931,1085.47 261.5,1085C 261.833,1084.67 262.167,1084.33 262.5,1084C 261.736,1081.93 261.236,1079.76 261,1077.5C 260.426,1075.51 259.259,1074.01 257.5,1073C 260.167,1072.33 260.167,1071.67 257.5,1071C 257.833,1070.67 258.167,1070.33 258.5,1070C 258.117,1063.37 257.117,1056.87 255.5,1050.5C 256.025,1049.81 256.692,1049.31 257.5,1049C 254.245,1047.77 253.912,1045.77 256.5,1043C 256.167,1042.67 255.833,1042.33 255.5,1042C 257.205,1038.83 258.038,1035.33 258,1031.5C 258.173,1037.02 258.673,1042.35 259.5,1047.5 Z"/></g>
<g><path style="opacity:0.662" fill="#1a91e1" d="M 1687.5,1137.5 C 1684.58,1138.65 1681.58,1139.65 1678.5,1140.5C 1634.62,1140.65 1590.62,1140.48 1546.5,1140C 1542.01,1139.57 1538.34,1137.74 1535.5,1134.5C 1537.1,1128.26 1538.43,1128.6 1539.5,1135.5C 1587.54,1135.83 1635.54,1135.5 1683.5,1134.5C 1684.8,1135.69 1686.13,1136.69 1687.5,1137.5 Z"/></g>
<g><path style="opacity:1" fill="#00112e" d="M 528.5,1343.5 C 525.754,1343.07 524.087,1341.41 523.5,1338.5C 522.311,1337.57 520.978,1337.24 519.5,1337.5C 519.517,1341.12 518.517,1344.45 516.5,1347.5C 515.468,1345.96 514.135,1345.46 512.5,1346C 513.167,1347.33 514.167,1348.33 515.5,1349C 512.167,1349.17 508.833,1349.33 505.5,1349.5C 499.465,1348.96 493.465,1348.3 487.5,1347.5C 487.141,1341.52 489.474,1336.85 494.5,1333.5C 495.088,1327.63 496.421,1321.96 498.5,1316.5C 500.078,1315.7 501.744,1315.2 503.5,1315C 505.872,1311.97 508.205,1308.97 510.5,1306C 508.19,1305.5 505.857,1305.34 503.5,1305.5C 503.5,1303.5 503.5,1301.5 503.5,1299.5C 502.167,1299.5 500.833,1299.5 499.5,1299.5C 498.357,1302.68 497.691,1306.02 497.5,1309.5C 496.022,1309.24 494.689,1309.57 493.5,1310.5C 491.966,1313.59 489.966,1316.26 487.5,1318.5C 489.183,1313.33 491.516,1308.49 494.5,1304C 487.275,1288.59 480.275,1273.09 473.5,1257.5C 476.179,1257.52 477.512,1258.86 477.5,1261.5C 479.678,1260.8 481.678,1260.46 483.5,1260.5C 482.833,1259.83 482.167,1259.17 481.5,1258.5C 483.345,1256.46 483.845,1254.13 483,1251.5C 482.333,1255.5 481.667,1255.5 481,1251.5C 480.667,1251.83 480.333,1252.17 480,1252.5C 478.933,1251.81 477.766,1251.31 476.5,1251C 477.167,1250.67 477.833,1250.33 478.5,1250C 476.469,1249.37 474.802,1248.2 473.5,1246.5C 475.9,1243.64 478.9,1242.47 482.5,1243C 484.437,1245.07 486.104,1247.24 487.5,1249.5C 489.311,1249.57 490.644,1250.41 491.5,1252C 493.057,1256 493.891,1260.16 494,1264.5C 496.187,1268.06 498.187,1271.73 500,1275.5C 502.242,1276.04 504.742,1276.71 507.5,1277.5C 510.652,1277.95 513.152,1276.95 515,1274.5C 515.419,1275.67 516.085,1276.67 517,1277.5C 517.739,1274.41 519.572,1272.91 522.5,1273C 521.321,1277.21 519.321,1281.37 516.5,1285.5C 515.719,1284.27 515.219,1282.94 515,1281.5C 514.689,1286.35 515.356,1291.02 517,1295.5C 517.814,1292.82 519.314,1290.82 521.5,1289.5C 520.453,1293.26 518.619,1296.59 516,1299.5C 515.505,1301.47 515.338,1303.47 515.5,1305.5C 514.325,1305.28 513.325,1305.61 512.5,1306.5C 510.025,1311.58 507.525,1315.91 505,1319.5C 501.793,1320.25 500.293,1322.25 500.5,1325.5C 501.822,1325.33 502.989,1325.66 504,1326.5C 506.669,1323.84 509.836,1322 513.5,1321C 524.437,1310.41 535.77,1300.24 547.5,1290.5C 552.871,1283.31 558.371,1276.31 564,1269.5C 564.282,1265.96 564.782,1262.46 565.5,1259C 560.687,1255 558.853,1249.83 560,1243.5C 563.516,1240.98 566.683,1238.15 569.5,1235C 574.946,1234.9 580.279,1234.23 585.5,1233C 588.331,1227.54 590.165,1221.71 591,1215.5C 592.011,1214.66 593.178,1214.33 594.5,1214.5C 596.168,1209.33 597.002,1202.66 597,1194.5C 597.5,1194 598,1193.5 598.5,1193C 597.782,1190.54 597.115,1188.04 596.5,1185.5C 592.731,1184.57 589.064,1185.07 585.5,1187C 580.075,1190.65 574.741,1194.48 569.5,1198.5C 563.486,1209.19 557.986,1220.19 553,1231.5C 550.698,1235.73 548.031,1239.73 545,1243.5C 544.667,1245.5 544.333,1247.5 544,1249.5C 541.427,1253.54 539.427,1257.88 538,1262.5C 536.723,1264.75 535.223,1266.75 533.5,1268.5C 538.624,1253.64 544.79,1239.3 552,1225.5C 556.61,1219.11 560.11,1211.94 562.5,1204C 559.814,1200.52 560.147,1200.02 563.5,1202.5C 565.112,1199.25 564.112,1197.08 560.5,1196C 561.009,1193.43 562.009,1191.1 563.5,1189C 561.616,1188.78 559.949,1188.12 558.5,1187C 560.488,1184.6 561.655,1181.76 562,1178.5C 563.4,1175.65 564.9,1175.32 566.5,1177.5C 565.687,1178.81 564.687,1179.98 563.5,1181C 564.035,1183.11 565.035,1183.61 566.5,1182.5C 567.5,1183.5 568.5,1184.5 569.5,1185.5C 567.883,1187.48 567.05,1189.48 567,1191.5C 566.5,1191.17 566,1190.83 565.5,1190.5C 565.957,1188.29 565.957,1186.29 565.5,1184.5C 564.786,1187.03 564.12,1189.53 563.5,1192C 564.815,1193.39 564.481,1194.39 562.5,1195C 563.416,1195.37 564.25,1195.87 565,1196.5C 566.109,1194.19 567.943,1192.69 570.5,1192C 570.167,1191.67 569.833,1191.33 569.5,1191C 572.644,1188.31 574.978,1185.14 576.5,1181.5C 574.833,1181.5 573.167,1181.5 571.5,1181.5C 571.351,1180.45 571.517,1179.45 572,1178.5C 573.494,1179.75 574.994,1179.75 576.5,1178.5C 575.68,1176.89 574.346,1176.22 572.5,1176.5C 572.657,1175.13 572.49,1173.79 572,1172.5C 571.29,1173.97 570.124,1174.64 568.5,1174.5C 568.519,1172.94 568.852,1171.44 569.5,1170C 569.167,1169.5 568.833,1169 568.5,1168.5C 567.833,1169.17 567.167,1169.83 566.5,1170.5C 560.931,1161.64 562.098,1160.64 570,1167.5C 572.344,1165.23 575.178,1164.06 578.5,1164C 579.816,1162.02 579.316,1160.52 577,1159.5C 574.313,1159.96 571.479,1159.96 568.5,1159.5C 568.291,1158.91 567.957,1158.41 567.5,1158C 569.761,1157.76 571.761,1157.59 573.5,1157.5C 569.454,1156.04 565.621,1156.38 562,1158.5C 546.433,1157.13 530.933,1155.46 515.5,1153.5C 527.72,1152.98 539.887,1151.98 552,1150.5C 554.702,1151.03 557.369,1151.69 560,1152.5C 565.44,1151.2 570.94,1150.2 576.5,1149.5C 579.32,1148.76 581.32,1147.1 582.5,1144.5C 583.324,1146.75 584.324,1146.91 585.5,1145C 587.473,1144.5 589.473,1144.34 591.5,1144.5C 593.167,1144.5 594.833,1144.5 596.5,1144.5C 597.847,1143.83 599.014,1143.83 600,1144.5C 600.667,1143.17 601.667,1142.17 603,1141.5C 605.737,1142.61 608.571,1142.78 611.5,1142C 610.304,1141.35 610.304,1140.85 611.5,1140.5C 613.738,1143.43 614.738,1143.1 614.5,1139.5C 616.752,1140.33 618.919,1140.33 621,1139.5C 622.556,1140.52 623.722,1141.85 624.5,1143.5C 622.896,1144.71 621.396,1146.71 620,1149.5C 617.606,1148.86 615.106,1148.86 612.5,1149.5C 612.736,1152.23 611.903,1154.56 610,1156.5C 609.683,1154.7 609.016,1154.37 608,1155.5C 607.322,1158.3 606.156,1160.8 604.5,1163C 605.271,1165 604.605,1166.66 602.5,1168C 605.279,1168.89 607.945,1170.06 610.5,1171.5C 611.833,1172.83 611.833,1174.17 610.5,1175.5C 612.265,1177.05 614.098,1177.39 616,1176.5C 616.251,1178.43 616.751,1180.27 617.5,1182C 620.553,1182.18 623.553,1182.68 626.5,1183.5C 627.853,1184.52 628.52,1185.86 628.5,1187.5C 631.96,1187.53 635.294,1188.19 638.5,1189.5C 639.863,1190.89 640.696,1192.56 641,1194.5C 641.333,1193.83 641.667,1193.17 642,1192.5C 644.114,1193.95 645.448,1195.95 646,1198.5C 646.674,1197.42 647.674,1196.75 649,1196.5C 652.621,1198.57 656.454,1199.9 660.5,1200.5C 660.244,1202.91 661.244,1204.58 663.5,1205.5C 662.855,1206.73 662.689,1208.07 663,1209.5C 661.005,1207.84 659.005,1206.17 657,1204.5C 653.61,1205.73 653.777,1206.57 657.5,1207C 658.141,1209.13 659.474,1210.63 661.5,1211.5C 663.858,1210.83 666.525,1210.66 669.5,1211C 672.222,1212.99 675.222,1214.49 678.5,1215.5C 680.439,1217.68 681.106,1220.01 680.5,1222.5C 682.061,1221.65 683.561,1221.99 685,1223.5C 685.94,1225.94 687.106,1228.28 688.5,1230.5C 693.177,1234.52 696.344,1239.52 698,1245.5C 699.298,1246.56 700.465,1247.73 701.5,1249C 702.888,1253.77 704.555,1258.44 706.5,1263C 705.427,1264.42 705.427,1265.75 706.5,1267C 705.5,1268 704.5,1269 703.5,1270C 704.938,1270.22 706.271,1270.72 707.5,1271.5C 705.164,1272.59 705.164,1273.93 707.5,1275.5C 708.906,1274.33 710.072,1274.67 711,1276.5C 711.414,1276.04 711.914,1275.71 712.5,1275.5C 713.85,1276.95 715.516,1277.62 717.5,1277.5C 717.679,1282.15 717.679,1286.65 717.5,1291C 719.004,1292.34 720.004,1294 720.5,1296C 718.285,1297.65 717.452,1299.81 718,1302.5C 718.333,1302.17 718.667,1301.83 719,1301.5C 719.828,1304.41 721.328,1307.41 723.5,1310.5C 723.154,1311.7 722.654,1311.7 722,1310.5C 721.923,1313.76 721.756,1316.92 721.5,1320C 720.518,1321.05 719.351,1321.55 718,1321.5C 717.316,1320.22 717.483,1319.05 718.5,1318C 718.042,1315.6 716.708,1313.94 714.5,1313C 714.94,1310.84 715.273,1308.67 715.5,1306.5C 713.993,1305.26 712.826,1305.59 712,1307.5C 711.655,1309.68 712.155,1311.68 713.5,1313.5C 712.456,1315.71 711.79,1318.05 711.5,1320.5C 713.993,1327.79 714.16,1335.12 712,1342.5C 711.5,1343 711,1343.5 710.5,1344C 651.152,1344.18 591.818,1344.68 532.5,1345.5C 530.645,1345.66 529.312,1344.99 528.5,1343.5 Z"/></g>
<g><path style="opacity:1" fill="#021029" d="M 591.5,1144.5 C 589.473,1144.34 587.473,1144.5 585.5,1145C 584.324,1146.91 583.324,1146.75 582.5,1144.5C 581.32,1147.1 579.32,1148.76 576.5,1149.5C 570.94,1150.2 565.44,1151.2 560,1152.5C 557.369,1151.69 554.702,1151.03 552,1150.5C 539.887,1151.98 527.72,1152.98 515.5,1153.5C 530.933,1155.46 546.433,1157.13 562,1158.5C 565.621,1156.38 569.454,1156.04 573.5,1157.5C 571.761,1157.59 569.761,1157.76 567.5,1158C 567.957,1158.41 568.291,1158.91 568.5,1159.5C 571.479,1159.96 574.313,1159.96 577,1159.5C 579.316,1160.52 579.816,1162.02 578.5,1164C 575.178,1164.06 572.344,1165.23 570,1167.5C 562.098,1160.64 560.931,1161.64 566.5,1170.5C 567.167,1169.83 567.833,1169.17 568.5,1168.5C 568.833,1169 569.167,1169.5 569.5,1170C 568.852,1171.44 568.519,1172.94 568.5,1174.5C 570.124,1174.64 571.29,1173.97 572,1172.5C 572.49,1173.79 572.657,1175.13 572.5,1176.5C 574.346,1176.22 575.68,1176.89 576.5,1178.5C 574.994,1179.75 573.494,1179.75 572,1178.5C 571.517,1179.45 571.351,1180.45 571.5,1181.5C 573.167,1181.5 574.833,1181.5 576.5,1181.5C 574.978,1185.14 572.644,1188.31 569.5,1191C 569.833,1191.33 570.167,1191.67 570.5,1192C 567.943,1192.69 566.109,1194.19 565,1196.5C 564.25,1195.87 563.416,1195.37 562.5,1195C 564.481,1194.39 564.815,1193.39 563.5,1192C 564.12,1189.53 564.786,1187.03 565.5,1184.5C 565.957,1186.29 565.957,1188.29 565.5,1190.5C 566,1190.83 566.5,1191.17 567,1191.5C 567.05,1189.48 567.883,1187.48 569.5,1185.5C 568.5,1184.5 567.5,1183.5 566.5,1182.5C 565.035,1183.61 564.035,1183.11 563.5,1181C 564.687,1179.98 565.687,1178.81 566.5,1177.5C 564.9,1175.32 563.4,1175.65 562,1178.5C 561.655,1181.76 560.488,1184.6 558.5,1187C 559.949,1188.12 561.616,1188.78 563.5,1189C 562.009,1191.1 561.009,1193.43 560.5,1196C 564.112,1197.08 565.112,1199.25 563.5,1202.5C 560.147,1200.02 559.814,1200.52 562.5,1204C 560.11,1211.94 556.61,1219.11 552,1225.5C 544.79,1239.3 538.624,1253.64 533.5,1268.5C 530.542,1273.74 527.542,1279.07 524.5,1284.5C 523.675,1285.39 522.675,1285.72 521.5,1285.5C 521.5,1286.83 521.5,1288.17 521.5,1289.5C 519.314,1290.82 517.814,1292.82 517,1295.5C 515.356,1291.02 514.689,1286.35 515,1281.5C 515.219,1282.94 515.719,1284.27 516.5,1285.5C 519.321,1281.37 521.321,1277.21 522.5,1273C 519.572,1272.91 517.739,1274.41 517,1277.5C 516.085,1276.67 515.419,1275.67 515,1274.5C 513.152,1276.95 510.652,1277.95 507.5,1277.5C 510.075,1275.67 512.575,1273.67 515,1271.5C 519.777,1263.8 523.777,1255.8 527,1247.5C 527.147,1242.96 527.98,1238.62 529.5,1234.5C 529.14,1232.58 528.306,1230.91 527,1229.5C 526.346,1230.7 525.846,1230.7 525.5,1229.5C 526.309,1227.93 526.643,1226.26 526.5,1224.5C 529.15,1222.41 531.983,1220.41 535,1218.5C 541.71,1206.11 548.877,1193.94 556.5,1182C 556.888,1180.47 556.888,1178.81 556.5,1177C 559.665,1174.26 559.665,1171.43 556.5,1168.5C 532.158,1168.17 507.824,1168.5 483.5,1169.5C 484.857,1171.19 486.19,1172.85 487.5,1174.5C 487.092,1177.6 488.259,1179.93 491,1181.5C 492.76,1186.12 495.593,1190.12 499.5,1193.5C 502.476,1197.79 504.643,1202.45 506,1207.5C 507.011,1208.34 508.178,1208.67 509.5,1208.5C 509.462,1211.18 510.129,1213.68 511.5,1216C 511.333,1217.5 510.5,1218.33 509,1218.5C 508.083,1217.04 506.583,1215.37 504.5,1213.5C 502.311,1212.83 500.311,1211.83 498.5,1210.5C 497.478,1210.86 496.811,1211.52 496.5,1212.5C 496.5,1213.17 496.167,1213.5 495.5,1213.5C 495.44,1212.96 495.107,1212.62 494.5,1212.5C 494.025,1216.79 492.025,1220.12 488.5,1222.5C 487.749,1221.62 487.249,1220.62 487,1219.5C 486.241,1221.06 485.074,1222.06 483.5,1222.5C 485.034,1216.91 487.034,1211.41 489.5,1206C 482.223,1200.39 475.556,1194.06 469.5,1187C 466.773,1186.18 464.106,1186.35 461.5,1187.5C 456.952,1191.75 452.952,1196.42 449.5,1201.5C 448.311,1202.43 446.978,1202.76 445.5,1202.5C 444.167,1205.83 444.167,1209.17 445.5,1212.5C 444.5,1212.5 443.5,1212.5 442.5,1212.5C 442.657,1211.13 442.49,1209.79 442,1208.5C 441.692,1209.31 441.192,1209.97 440.5,1210.5C 438.528,1209.69 437.028,1208.36 436,1206.5C 433.014,1209.95 429.848,1213.28 426.5,1216.5C 426.167,1216.17 425.833,1215.83 425.5,1215.5C 427.439,1213.88 427.772,1212.04 426.5,1210C 428.784,1206.31 430.784,1202.48 432.5,1198.5C 433.354,1197.48 434.354,1196.64 435.5,1196C 433.942,1189.37 436.609,1185.54 443.5,1184.5C 444.291,1180.27 445.625,1176.27 447.5,1172.5C 448.833,1172.5 450.167,1172.5 451.5,1172.5C 451.5,1171.17 451.5,1169.83 451.5,1168.5C 450.5,1168.5 449.5,1168.5 448.5,1168.5C 428.007,1167.5 407.34,1167.17 386.5,1167.5C 384.735,1166.54 382.735,1166.21 380.5,1166.5C 380.328,1164.51 380.995,1162.84 382.5,1161.5C 381.63,1159.47 380.13,1158.14 378,1157.5C 374.828,1159 372.995,1158 372.5,1154.5C 375.049,1154.56 377.049,1153.56 378.5,1151.5C 380.416,1152.25 382.416,1152.25 384.5,1151.5C 384.281,1152.68 384.614,1153.68 385.5,1154.5C 386.731,1153.35 386.731,1152.18 385.5,1151C 380.76,1151 376.26,1150.17 372,1148.5C 368.09,1149.59 364.09,1149.59 360,1148.5C 358.349,1149.74 356.515,1150.58 354.5,1151C 356.202,1152.72 358.035,1152.89 360,1151.5C 360.374,1152.42 360.874,1153.25 361.5,1154C 364.482,1154.5 367.482,1154.66 370.5,1154.5C 370.836,1158.17 370.003,1161.5 368,1164.5C 365.833,1163 366,1161.83 368.5,1161C 363.597,1159.29 358.763,1157.46 354,1155.5C 350.087,1156.79 346.254,1156.29 342.5,1154C 342.216,1152.04 342.216,1149.88 342.5,1147.5C 343.873,1147.66 345.207,1147.49 346.5,1147C 344.563,1146.88 343.23,1146.05 342.5,1144.5C 347.044,1144.22 351.377,1143.89 355.5,1143.5C 356.696,1143.85 356.696,1144.35 355.5,1145C 359.5,1147.02 363.334,1146.85 367,1144.5C 369.818,1145.13 372.485,1146.13 375,1147.5C 377.251,1147.31 379.751,1146.98 382.5,1146.5C 384.32,1146.65 385.82,1147.32 387,1148.5C 391.857,1146.88 396.524,1146.55 401,1147.5C 411.667,1146.83 422.333,1146.17 433,1145.5C 437.387,1145.81 441.553,1146.81 445.5,1148.5C 446.5,1147.83 447.5,1147.17 448.5,1146.5C 454.239,1146.53 460.073,1146.86 466,1147.5C 470.144,1147.62 474.144,1146.96 478,1145.5C 479.73,1146.65 481.396,1146.65 483,1145.5C 483.308,1146.31 483.808,1146.97 484.5,1147.5C 502.471,1144.38 520.471,1144.05 538.5,1146.5C 546.65,1145.51 554.65,1146.18 562.5,1148.5C 565.96,1146.69 569.46,1145.02 573,1143.5C 573.333,1143.83 573.667,1144.17 574,1144.5C 579.015,1142.91 584.182,1141.57 589.5,1140.5C 589.527,1142.2 590.194,1143.53 591.5,1144.5 Z"/></g>
<g><path style="opacity:0.804" fill="#070c1a" d="M 311.5,1161.5 C 265.302,1143.61 239.302,1109.95 233.5,1060.5C 234.222,1060.92 234.722,1061.58 235,1062.5C 235.494,1060.87 235.66,1059.2 235.5,1057.5C 239.5,1057.5 241.5,1059.5 241.5,1063.5C 242.552,1063.35 243.552,1063.52 244.5,1064C 243.018,1066.59 243.352,1068.93 245.5,1071C 245.043,1071.41 244.709,1071.91 244.5,1072.5C 245.286,1076.54 246.286,1080.54 247.5,1084.5C 246.816,1087.11 247.65,1089.45 250,1091.5C 251.645,1097.11 252.978,1102.78 254,1108.5C 256.763,1113.05 260.43,1116.72 265,1119.5C 267.628,1122.49 269.961,1125.82 272,1129.5C 276.489,1133.28 280.656,1137.45 284.5,1142C 290.083,1143.41 294.416,1146.58 297.5,1151.5C 305.665,1153.96 313.332,1157.46 320.5,1162C 317.623,1162.72 314.957,1162.22 312.5,1160.5C 311.893,1160.62 311.56,1160.96 311.5,1161.5 Z"/></g>
<g><path style="opacity:1" fill="#060f23" d="M 657.5,831.5 C 659.017,831.511 660.184,832.177 661,833.5C 663.233,838.135 665.9,842.468 669,846.5C 668.978,851.794 670.812,856.294 674.5,860C 675.731,863.201 675.731,866.701 674.5,870.5C 675.675,870.281 676.675,870.614 677.5,871.5C 677.687,875.635 677.687,879.801 677.5,884C 677.955,885.724 678.788,887.224 680,888.5C 681.258,936.73 681.591,985.064 681,1033.5C 680.803,1038.09 680.303,1042.59 679.5,1047C 680.167,1047.33 680.833,1047.67 681.5,1048C 680.027,1050.05 678.693,1052.21 677.5,1054.5C 676.62,1059.49 675.787,1064.49 675,1069.5C 671.76,1078.31 668.26,1086.97 664.5,1095.5C 660.051,1101.47 655.884,1107.47 652,1113.5C 646.667,1117.5 641.333,1121.5 636,1125.5C 635.667,1125.17 635.333,1124.83 635,1124.5C 634.558,1126.68 633.558,1127.35 632,1126.5C 630.418,1127.96 629.085,1129.63 628,1131.5C 627.586,1131.04 627.086,1130.71 626.5,1130.5C 622.674,1132.04 619.174,1134.04 616,1136.5C 614.165,1135.88 611.999,1135.71 609.5,1136C 609.043,1136.41 608.709,1136.91 608.5,1137.5C 609.729,1138.28 611.062,1138.78 612.5,1139C 610.782,1139.35 609.115,1139.85 607.5,1140.5C 604.115,1137.89 600.949,1138.22 598,1141.5C 597.667,1141.17 597.333,1140.83 597,1140.5C 596.51,1141.79 596.343,1143.13 596.5,1144.5C 594.833,1144.5 593.167,1144.5 591.5,1144.5C 590.194,1143.53 589.527,1142.2 589.5,1140.5C 584.182,1141.57 579.015,1142.91 574,1144.5C 573.667,1144.17 573.333,1143.83 573,1143.5C 569.46,1145.02 565.96,1146.69 562.5,1148.5C 554.65,1146.18 546.65,1145.51 538.5,1146.5C 520.471,1144.05 502.471,1144.38 484.5,1147.5C 483.808,1146.97 483.308,1146.31 483,1145.5C 481.396,1146.65 479.73,1146.65 478,1145.5C 474.144,1146.96 470.144,1147.62 466,1147.5C 460.073,1146.86 454.239,1146.53 448.5,1146.5C 447.5,1147.17 446.5,1147.83 445.5,1148.5C 441.553,1146.81 437.387,1145.81 433,1145.5C 422.333,1146.17 411.667,1146.83 401,1147.5C 396.524,1146.55 391.857,1146.88 387,1148.5C 385.82,1147.32 384.32,1146.65 382.5,1146.5C 379.751,1146.98 377.251,1147.31 375,1147.5C 372.485,1146.13 369.818,1145.13 367,1144.5C 363.334,1146.85 359.5,1147.02 355.5,1145C 356.696,1144.35 356.696,1143.85 355.5,1143.5C 351.377,1143.89 347.044,1144.22 342.5,1144.5C 340.618,1143.25 338.618,1142.08 336.5,1141C 331.718,1140.61 327.051,1139.78 322.5,1138.5C 322.5,1137.17 322.5,1135.83 322.5,1134.5C 337.028,1137.88 351.695,1140.22 366.5,1141.5C 399.833,1141.83 433.167,1142.17 466.5,1142.5C 502.856,1142.64 539.189,1142.14 575.5,1141C 584.165,1139.66 592.831,1138 601.5,1136C 623.474,1128.88 641.474,1116.04 655.5,1097.5C 656.832,1095.87 658.165,1094.2 659.5,1092.5C 659.296,1093.53 659.796,1094.53 661,1095.5C 663.306,1092.09 665.14,1088.42 666.5,1084.5C 665.833,1083.83 665.167,1083.17 664.5,1082.5C 665.648,1080.85 666.981,1079.35 668.5,1078C 667.949,1076.6 667.616,1075.27 667.5,1074C 668.274,1072.42 669.607,1070.75 671.5,1069C 670.767,1067.23 670.433,1065.4 670.5,1063.5C 671.833,1063.5 673.167,1063.5 674.5,1063.5C 674.714,1061.86 674.38,1060.36 673.5,1059C 674.167,1057.67 674.833,1056.33 675.5,1055C 674.742,1053.64 675.242,1052.47 677,1051.5C 676.623,1044.88 677.289,1038.21 679,1031.5C 680.881,995.497 680.715,959.497 678.5,923.5C 678.871,918.106 679.204,912.606 679.5,907C 678.761,902.873 678.261,898.706 678,894.5C 676.383,893.464 676.216,892.297 677.5,891C 674.369,887.029 674.036,882.696 676.5,878C 675.257,876.846 674.257,875.512 673.5,874C 673.813,865.422 671.48,857.422 666.5,850C 666.957,849.586 667.291,849.086 667.5,848.5C 663.386,843.27 660.053,837.603 657.5,831.5 Z"/></g>
<g><path style="opacity:1" fill="#00112d" d="M 342.5,1144.5 C 343.23,1146.05 344.563,1146.88 346.5,1147C 345.207,1147.49 343.873,1147.66 342.5,1147.5C 342.216,1149.88 342.216,1152.04 342.5,1154C 346.254,1156.29 350.087,1156.79 354,1155.5C 358.763,1157.46 363.597,1159.29 368.5,1161C 366,1161.83 365.833,1163 368,1164.5C 370.003,1161.5 370.836,1158.17 370.5,1154.5C 367.482,1154.66 364.482,1154.5 361.5,1154C 360.874,1153.25 360.374,1152.42 360,1151.5C 358.035,1152.89 356.202,1152.72 354.5,1151C 356.515,1150.58 358.349,1149.74 360,1148.5C 364.09,1149.59 368.09,1149.59 372,1148.5C 376.26,1150.17 380.76,1151 385.5,1151C 386.731,1152.18 386.731,1153.35 385.5,1154.5C 384.614,1153.68 384.281,1152.68 384.5,1151.5C 382.416,1152.25 380.416,1152.25 378.5,1151.5C 377.049,1153.56 375.049,1154.56 372.5,1154.5C 372.995,1158 374.828,1159 378,1157.5C 380.13,1158.14 381.63,1159.47 382.5,1161.5C 380.995,1162.84 380.328,1164.51 380.5,1166.5C 382.735,1166.21 384.735,1166.54 386.5,1167.5C 381.441,1166.9 376.441,1166.9 371.5,1167.5C 370.626,1173.45 370.626,1178.95 371.5,1184C 372.449,1184.62 373.282,1184.45 374,1183.5C 376.458,1188.08 378.624,1192.75 380.5,1197.5C 380.291,1198.09 379.957,1198.59 379.5,1199C 381.044,1199.29 382.377,1199.96 383.5,1201C 383.167,1201.33 382.833,1201.67 382.5,1202C 385.707,1203.14 387.041,1205.14 386.5,1208C 389.32,1208.74 391.32,1210.4 392.5,1213C 392.6,1215.36 393.767,1217.52 396,1219.5C 396.056,1222.78 396.889,1225.78 398.5,1228.5C 398.537,1240 402.704,1250 411,1258.5C 412.386,1264.35 414.719,1269.68 418,1274.5C 420.052,1275.79 422.219,1276.79 424.5,1277.5C 424.389,1278.12 424.056,1278.62 423.5,1279C 425.165,1278.26 426.831,1278.42 428.5,1279.5C 430.747,1278.59 432.747,1277.26 434.5,1275.5C 435.271,1279.41 436.271,1283.24 437.5,1287C 437.215,1288.89 436.215,1290.22 434.5,1291C 435.276,1292.77 435.11,1294.6 434,1296.5C 432.667,1297.17 431.667,1298.17 431,1299.5C 430.51,1298.21 430.343,1296.87 430.5,1295.5C 428.473,1295.66 426.473,1295.5 424.5,1295C 426.025,1291.24 424.692,1289.4 420.5,1289.5C 420.662,1287.47 420.495,1285.47 420,1283.5C 419.667,1284.83 419.333,1286.17 419,1287.5C 418.444,1285.4 417.944,1285.24 417.5,1287C 419.013,1288.88 419.679,1291.05 419.5,1293.5C 418.5,1293.5 417.5,1293.5 416.5,1293.5C 416.5,1292.17 416.5,1290.83 416.5,1289.5C 415.5,1289.5 414.5,1289.5 413.5,1289.5C 416.121,1294.49 417.788,1299.82 418.5,1305.5C 419.675,1305.28 420.675,1305.61 421.5,1306.5C 424.343,1311.52 427.676,1316.19 431.5,1320.5C 429.955,1323.2 430.621,1325.2 433.5,1326.5C 434.149,1330.28 435.483,1333.78 437.5,1337C 434.61,1338.89 434.944,1339.73 438.5,1339.5C 438.328,1341.49 438.995,1343.16 440.5,1344.5C 438.342,1346.03 438.675,1347.53 441.5,1349C 434.326,1349.1 426.993,1349.27 419.5,1349.5C 419.5,1346.83 419.5,1344.17 419.5,1341.5C 414.167,1341.5 408.833,1341.5 403.5,1341.5C 403.628,1343.65 403.128,1345.65 402,1347.5C 399.542,1345.71 396.709,1344.71 393.5,1344.5C 337.549,1344.4 281.883,1344.73 226.5,1345.5C 224.912,1344.99 223.745,1343.99 223,1342.5C 222.667,1342.83 222.333,1343.17 222,1343.5C 219.705,1339.12 219.205,1334.62 220.5,1330C 217.886,1329.58 215.886,1330.58 214.5,1333C 215.732,1336.39 216.566,1336.22 217,1332.5C 217.817,1336.23 216.983,1339.56 214.5,1342.5C 213.126,1339.44 212.126,1336.61 211.5,1334C 213.706,1331.79 214.04,1329.29 212.5,1326.5C 213.884,1323.09 215.218,1320.09 216.5,1317.5C 215.926,1315.94 215.26,1314.44 214.5,1313C 215.794,1310.91 216.794,1308.91 217.5,1307C 216.833,1306.33 216.167,1305.67 215.5,1305C 216.976,1301.69 217.81,1298.19 218,1294.5C 218.893,1295.08 219.893,1295.41 221,1295.5C 224.524,1294.7 226.857,1292.7 228,1289.5C 229.717,1290.39 230.884,1289.72 231.5,1287.5C 230.963,1286.26 230.296,1285.09 229.5,1284C 229.892,1282.99 230.559,1282.49 231.5,1282.5C 230.975,1281.81 230.308,1281.31 229.5,1281C 230.863,1278.87 230.529,1278.37 228.5,1279.5C 227.92,1282.98 227.087,1286.31 226,1289.5C 225.047,1287.41 223.714,1287.07 222,1288.5C 220.908,1284.33 221.741,1280.66 224.5,1277.5C 225.329,1272.53 225.829,1267.53 226,1262.5C 227.876,1259.6 229.709,1256.6 231.5,1253.5C 230.948,1252 230.948,1250.33 231.5,1248.5C 233.5,1247.83 235.5,1247.17 237.5,1246.5C 237.34,1244.8 237.506,1243.13 238,1241.5C 239.898,1238.04 242.565,1234.71 246,1231.5C 246.8,1226.52 249.633,1223.35 254.5,1222C 255.268,1219.63 256.435,1217.46 258,1215.5C 261.545,1211.77 265.712,1209.11 270.5,1207.5C 271.167,1206.17 272.167,1205.17 273.5,1204.5C 274.341,1208.04 275.341,1211.54 276.5,1215C 276.167,1215.5 275.833,1216 275.5,1216.5C 274.5,1214.83 273.167,1213.5 271.5,1212.5C 271.089,1213.26 270.923,1214.26 271,1215.5C 270.25,1216.13 269.416,1216.63 268.5,1217C 270.554,1217.01 272.554,1217.85 274.5,1219.5C 275.183,1219.14 275.85,1218.8 276.5,1218.5C 269.583,1224.92 262.749,1231.58 256,1238.5C 250.482,1245.34 245.815,1252.67 242,1260.5C 240.593,1268.55 238.093,1276.22 234.5,1283.5C 232.576,1293.77 229.743,1303.77 226,1313.5C 224.082,1322.75 223.416,1332.09 224,1341.5C 224.5,1342 225,1342.5 225.5,1343C 283.833,1343.67 342.167,1343.67 400.5,1343C 401.535,1341.49 401.368,1339.99 400,1338.5C 384.294,1321.8 368.127,1305.46 351.5,1289.5C 350.15,1288.05 348.484,1287.38 346.5,1287.5C 342.246,1279.25 335.912,1272.91 327.5,1268.5C 323.604,1262.1 318.771,1256.43 313,1251.5C 310.529,1239.13 311.696,1227.3 316.5,1216C 316.043,1215.59 315.709,1215.09 315.5,1214.5C 316.167,1209.5 316.833,1204.5 317.5,1199.5C 317.038,1197.71 315.871,1196.71 314,1196.5C 312.061,1196.95 310.228,1197.62 308.5,1198.5C 308.721,1197.27 309.388,1196.27 310.5,1195.5C 309.092,1194.76 307.759,1193.92 306.5,1193C 307.833,1192.33 307.833,1191.67 306.5,1191C 307.777,1190.87 308.943,1191.37 310,1192.5C 310.5,1192.17 311,1191.83 311.5,1191.5C 310.272,1189.68 308.606,1188.68 306.5,1188.5C 306.5,1187.17 306.5,1185.83 306.5,1184.5C 309.073,1183.51 311.74,1182.67 314.5,1182C 315.742,1180.12 317.076,1178.29 318.5,1176.5C 318.291,1175.91 317.957,1175.41 317.5,1175C 319.833,1174.67 322.167,1174.33 324.5,1174C 325.893,1172.83 326.727,1171.33 327,1169.5C 327.654,1170.7 328.154,1170.7 328.5,1169.5C 327.189,1168.74 326.689,1167.74 327,1166.5C 328.016,1167.63 328.683,1167.3 329,1165.5C 330.049,1166.52 331.216,1166.68 332.5,1166C 331.304,1165.35 331.304,1164.85 332.5,1164.5C 333.192,1165.03 333.692,1165.69 334,1166.5C 334.645,1165.35 335.478,1164.35 336.5,1163.5C 334.844,1161.59 334.511,1159.59 335.5,1157.5C 341.728,1161.94 342.728,1161.11 338.5,1155C 337.886,1153.46 337.886,1152.13 338.5,1151C 334.331,1148.9 333.831,1146.4 337,1143.5C 338.394,1145.4 340.227,1145.74 342.5,1144.5 Z"/></g>
<g><path style="opacity:1" fill="#fbfbfb" d="M 556.5,1168.5 C 545.558,1186.66 535.558,1205.32 526.5,1224.5C 524.926,1226.1 524.259,1228.1 524.5,1230.5C 523.5,1230.5 522.5,1230.5 521.5,1230.5C 512.982,1210.01 501.648,1191.35 487.5,1174.5C 486.19,1172.85 484.857,1171.19 483.5,1169.5C 507.824,1168.5 532.158,1168.17 556.5,1168.5 Z"/></g>
<g><path style="opacity:1" fill="#10141e" d="M 556.5,1168.5 C 559.665,1171.43 559.665,1174.26 556.5,1177C 556.888,1178.81 556.888,1180.47 556.5,1182C 548.877,1193.94 541.71,1206.11 535,1218.5C 531.983,1220.41 529.15,1222.41 526.5,1224.5C 535.558,1205.32 545.558,1186.66 556.5,1168.5 Z"/></g>
<g><path style="opacity:1" fill="#001943" d="M 418.5,1305.5 C 419.815,1310.43 420.981,1315.43 422,1320.5C 425.307,1322.6 425.141,1323.27 421.5,1322.5C 417.128,1316.97 411.795,1312.47 405.5,1309C 402.325,1305.49 398.825,1302.33 395,1299.5C 392.333,1296.5 389.667,1293.5 387,1290.5C 386.667,1288.83 386.333,1287.17 386,1285.5C 382.405,1279.54 378.905,1273.54 375.5,1267.5C 372.086,1265.04 368.586,1262.71 365,1260.5C 365.025,1256.62 366.692,1253.62 370,1251.5C 370.499,1247.18 370.666,1242.85 370.5,1238.5C 362.526,1235.37 354.192,1233.7 345.5,1233.5C 344.757,1232.09 343.923,1230.76 343,1229.5C 341.926,1224.38 340.592,1219.38 339,1214.5C 338.921,1208.03 338.088,1201.7 336.5,1195.5C 336.507,1192.83 337.841,1191.5 340.5,1191.5C 347.521,1192.13 354.521,1192.8 361.5,1193.5C 367.6,1204.92 373.434,1216.59 379,1228.5C 382.239,1232.26 384.239,1236.26 385,1240.5C 385.689,1241.36 386.522,1242.02 387.5,1242.5C 392.191,1252.04 396.691,1261.71 401,1271.5C 405.005,1271.98 406.172,1273.98 404.5,1277.5C 407.543,1281.65 409.376,1286.32 410,1291.5C 412.145,1296.83 414.978,1301.49 418.5,1305.5 Z"/></g>
<g><path style="opacity:0.834" fill="#040713" d="M 215.5,1367.5 C 205.692,1365.44 200.692,1359.28 200.5,1349C 201.515,1309.8 211.182,1272.97 229.5,1238.5C 247.583,1210.41 271.583,1189.08 301.5,1174.5C 303.787,1174.28 305.953,1173.61 308,1172.5C 308.5,1172.67 309,1172.83 309.5,1173C 281.028,1186.97 257.194,1206.47 238,1231.5C 237.667,1234.17 237.333,1236.83 237,1239.5C 232.149,1243.68 228.482,1248.68 226,1254.5C 222.894,1264.8 219.894,1275.13 217,1285.5C 216,1286.5 215,1287.5 214,1288.5C 213.387,1298.21 212.387,1307.87 211,1317.5C 210.667,1316.83 210.333,1316.17 210,1315.5C 208.066,1326.77 207.4,1338.1 208,1349.5C 209.224,1352.28 210.724,1354.94 212.5,1357.5C 216.93,1359.15 217.597,1360.98 214.5,1363C 222.197,1364.25 221.863,1365.25 213.5,1366C 214.416,1366.28 215.082,1366.78 215.5,1367.5 Z"/></g>
<g><path style="opacity:1" fill="#0254af" d="M 483.5,1222.5 C 483.5,1223.17 483.5,1223.83 483.5,1224.5C 481.163,1226.51 479.829,1229.17 479.5,1232.5C 470.808,1232.83 462.141,1232.5 453.5,1231.5C 451.657,1226.91 449.657,1222.58 447.5,1218.5C 446.833,1216.5 446.167,1214.5 445.5,1212.5C 444.167,1209.17 444.167,1205.83 445.5,1202.5C 446.978,1202.76 448.311,1202.43 449.5,1201.5C 452.952,1196.42 456.952,1191.75 461.5,1187.5C 464.106,1186.35 466.773,1186.18 469.5,1187C 475.556,1194.06 482.223,1200.39 489.5,1206C 487.034,1211.41 485.034,1216.91 483.5,1222.5 Z"/></g>
<g><path style="opacity:1" fill="#011a42" d="M 521.5,1289.5 C 521.5,1288.17 521.5,1286.83 521.5,1285.5C 522.675,1285.72 523.675,1285.39 524.5,1284.5C 527.542,1279.07 530.542,1273.74 533.5,1268.5C 535.223,1266.75 536.723,1264.75 538,1262.5C 539.427,1257.88 541.427,1253.54 544,1249.5C 544.333,1247.5 544.667,1245.5 545,1243.5C 548.031,1239.73 550.698,1235.73 553,1231.5C 557.986,1220.19 563.486,1209.19 569.5,1198.5C 574.741,1194.48 580.075,1190.65 585.5,1187C 589.064,1185.07 592.731,1184.57 596.5,1185.5C 597.115,1188.04 597.782,1190.54 598.5,1193C 598,1193.5 597.5,1194 597,1194.5C 597.002,1202.66 596.168,1209.33 594.5,1214.5C 593.178,1214.33 592.011,1214.66 591,1215.5C 590.165,1221.71 588.331,1227.54 585.5,1233C 580.279,1234.23 574.946,1234.9 569.5,1235C 566.683,1238.15 563.516,1240.98 560,1243.5C 558.853,1249.83 560.687,1255 565.5,1259C 564.782,1262.46 564.282,1265.96 564,1269.5C 558.371,1276.31 552.871,1283.31 547.5,1290.5C 535.77,1300.24 524.437,1310.41 513.5,1321C 509.836,1322 506.669,1323.84 504,1326.5C 502.989,1325.66 501.822,1325.33 500.5,1325.5C 500.293,1322.25 501.793,1320.25 505,1319.5C 507.525,1315.91 510.025,1311.58 512.5,1306.5C 513.325,1305.61 514.325,1305.28 515.5,1305.5C 515.338,1303.47 515.505,1301.47 516,1299.5C 518.619,1296.59 520.453,1293.26 521.5,1289.5 Z"/></g>
<g><path style="opacity:1" fill="#011d4a" d="M 528.5,1343.5 C 527.909,1342.85 527.243,1342.18 526.5,1341.5C 527.246,1340.26 527.579,1338.93 527.5,1337.5C 528.833,1337.5 530.167,1337.5 531.5,1337.5C 531.351,1336.45 531.517,1335.45 532,1334.5C 536.14,1330.36 540.306,1326.19 544.5,1322C 545.793,1321.51 547.127,1321.34 548.5,1321.5C 548.343,1320.13 548.51,1318.79 549,1317.5C 553.141,1313.69 557.307,1309.86 561.5,1306C 562.448,1305.52 563.448,1305.35 564.5,1305.5C 564.5,1304.17 564.5,1302.83 564.5,1301.5C 569.878,1298.96 574.212,1295.13 577.5,1290C 583.341,1289.87 587.341,1287.04 589.5,1281.5C 594.758,1277.2 599.258,1272.2 603,1266.5C 604.491,1265 606.324,1264.16 608.5,1264C 611.167,1260.36 614.333,1257.19 618,1254.5C 619.699,1250.88 620.865,1247.05 621.5,1243C 619.585,1226.58 617.252,1210.41 614.5,1194.5C 617.617,1194.13 620.617,1194.13 623.5,1194.5C 634.208,1201.89 644.874,1209.23 655.5,1216.5C 657.742,1220.91 660.575,1224.91 664,1228.5C 671.454,1233.62 677.12,1240.29 681,1248.5C 683.858,1250.43 685.525,1253.09 686,1256.5C 687.667,1257.17 689.333,1257.83 691,1258.5C 697.026,1270.24 701.693,1282.57 705,1295.5C 705.709,1302.29 707.042,1308.96 709,1315.5C 709.5,1324.83 709.666,1334.16 709.5,1343.5C 649.167,1343.5 588.833,1343.5 528.5,1343.5 Z"/></g>
<g><path style="opacity:1" fill="#10141f" d="M 487.5,1174.5 C 501.648,1191.35 512.982,1210.01 521.5,1230.5C 522.5,1230.5 523.5,1230.5 524.5,1230.5C 524.259,1228.1 524.926,1226.1 526.5,1224.5C 526.643,1226.26 526.309,1227.93 525.5,1229.5C 525.846,1230.7 526.346,1230.7 527,1229.5C 528.306,1230.91 529.14,1232.58 529.5,1234.5C 527.98,1238.62 527.147,1242.96 527,1247.5C 523.777,1255.8 519.777,1263.8 515,1271.5C 512.575,1273.67 510.075,1275.67 507.5,1277.5C 504.742,1276.71 502.242,1276.04 500,1275.5C 498.187,1271.73 496.187,1268.06 494,1264.5C 493.891,1260.16 493.057,1256 491.5,1252C 490.644,1250.41 489.311,1249.57 487.5,1249.5C 487.5,1246.5 487.5,1243.5 487.5,1240.5C 486.167,1240.5 484.833,1240.5 483.5,1240.5C 483.646,1237.17 482.979,1234.01 481.5,1231C 482.618,1228.94 483.285,1226.77 483.5,1224.5C 483.5,1223.83 483.5,1223.17 483.5,1222.5C 485.074,1222.06 486.241,1221.06 487,1219.5C 487.249,1220.62 487.749,1221.62 488.5,1222.5C 492.025,1220.12 494.025,1216.79 494.5,1212.5C 495.107,1212.62 495.44,1212.96 495.5,1213.5C 493.272,1221.13 490.605,1228.63 487.5,1236C 493.411,1248.58 499.411,1261.08 505.5,1273.5C 513.167,1260.17 520.833,1246.83 528.5,1233.5C 528,1233.17 527.5,1232.83 527,1232.5C 525.418,1234.03 523.585,1234.53 521.5,1234C 512.98,1226.98 504.647,1219.81 496.5,1212.5C 496.811,1211.52 497.478,1210.86 498.5,1210.5C 500.311,1211.83 502.311,1212.83 504.5,1213.5C 506.583,1215.37 508.083,1217.04 509,1218.5C 510.5,1218.33 511.333,1217.5 511.5,1216C 510.129,1213.68 509.462,1211.18 509.5,1208.5C 508.178,1208.67 507.011,1208.34 506,1207.5C 504.643,1202.45 502.476,1197.79 499.5,1193.5C 495.593,1190.12 492.76,1186.12 491,1181.5C 488.259,1179.93 487.092,1177.6 487.5,1174.5 Z"/></g>
<g><path style="opacity:1" fill="#f8f8f8" d="M 496.5,1212.5 C 504.647,1219.81 512.98,1226.98 521.5,1234C 523.585,1234.53 525.418,1234.03 527,1232.5C 527.5,1232.83 528,1233.17 528.5,1233.5C 520.833,1246.83 513.167,1260.17 505.5,1273.5C 499.411,1261.08 493.411,1248.58 487.5,1236C 490.605,1228.63 493.272,1221.13 495.5,1213.5C 496.167,1213.5 496.5,1213.17 496.5,1212.5 Z"/></g>
<g><path style="opacity:1" fill="#011e4a" d="M 276.5,1218.5 C 280.543,1215.81 284.876,1213.65 289.5,1212C 290.337,1210.99 290.67,1209.82 290.5,1208.5C 291.552,1208.65 292.552,1208.48 293.5,1208C 298.421,1204.55 303.421,1201.39 308.5,1198.5C 310.228,1197.62 312.061,1196.95 314,1196.5C 315.871,1196.71 317.038,1197.71 317.5,1199.5C 316.833,1204.5 316.167,1209.5 315.5,1214.5C 315.709,1215.09 316.043,1215.59 316.5,1216C 311.696,1227.3 310.529,1239.13 313,1251.5C 318.771,1256.43 323.604,1262.1 327.5,1268.5C 335.912,1272.91 342.246,1279.25 346.5,1287.5C 348.484,1287.38 350.15,1288.05 351.5,1289.5C 368.127,1305.46 384.294,1321.8 400,1338.5C 401.368,1339.99 401.535,1341.49 400.5,1343C 342.167,1343.67 283.833,1343.67 225.5,1343C 225,1342.5 224.5,1342 224,1341.5C 223.416,1332.09 224.082,1322.75 226,1313.5C 229.743,1303.77 232.576,1293.77 234.5,1283.5C 238.093,1276.22 240.593,1268.55 242,1260.5C 245.815,1252.67 250.482,1245.34 256,1238.5C 262.749,1231.58 269.583,1224.92 276.5,1218.5 Z"/></g>
<g><path style="opacity:1" fill="#1293ef" d="M 473.5,1257.5 C 480.275,1273.09 487.275,1288.59 494.5,1304C 491.516,1308.49 489.183,1313.33 487.5,1318.5C 483.083,1326.49 478.75,1334.66 474.5,1343C 468.167,1343.67 461.833,1343.67 455.5,1343C 453.051,1338.35 450.384,1333.85 447.5,1329.5C 448.833,1329.5 450.167,1329.5 451.5,1329.5C 451.33,1330.82 451.663,1331.99 452.5,1333C 455.713,1335.39 459.047,1337.55 462.5,1339.5C 465.295,1339.21 467.462,1337.87 469,1335.5C 470.836,1337.6 473.002,1337.94 475.5,1336.5C 477.994,1333.58 477.994,1330.58 475.5,1327.5C 476.304,1325.86 477.304,1324.36 478.5,1323C 477.503,1320.6 477.836,1318.26 479.5,1316C 481.076,1313.09 482.743,1310.26 484.5,1307.5C 485.192,1308.03 485.692,1308.69 486,1309.5C 486.471,1307.75 487.138,1306.09 488,1304.5C 488.333,1304.83 488.667,1305.17 489,1305.5C 489.338,1296.48 486.504,1288.48 480.5,1281.5C 480.763,1276.27 478.597,1272.61 474,1270.5C 473.667,1268.83 473.333,1267.17 473,1265.5C 472,1264.17 471,1264.17 470,1265.5C 469.047,1263.54 467.713,1261.88 466,1260.5C 464.815,1263.27 462.982,1264.27 460.5,1263.5C 460.167,1264 459.833,1264.5 459.5,1265C 462.613,1269.05 461.946,1270.71 457.5,1270C 459.405,1270.83 459.739,1271.99 458.5,1273.5C 457.833,1272.83 457.167,1272.17 456.5,1271.5C 455.231,1273.69 455.231,1275.86 456.5,1278C 450.162,1281.39 449.829,1285.39 455.5,1290C 454.048,1291.96 453.715,1293.96 454.5,1296C 452.798,1297.58 451.464,1297.08 450.5,1294.5C 449.432,1296.19 449.599,1297.85 451,1299.5C 451.893,1298.29 452.726,1298.29 453.5,1299.5C 451.713,1300.32 450.046,1301.32 448.5,1302.5C 449.764,1306.15 449.764,1309.82 448.5,1313.5C 445.646,1311.17 445.313,1308.67 447.5,1306C 446.584,1305.63 445.75,1305.13 445,1304.5C 443.425,1306.07 442.258,1307.91 441.5,1310C 442.769,1316 445.436,1321.17 449.5,1325.5C 449.253,1326.71 448.586,1327.38 447.5,1327.5C 444.262,1321.41 440.762,1315.41 437,1309.5C 436.333,1308.17 436.333,1306.83 437,1305.5C 444.309,1290.16 451.309,1274.83 458,1259.5C 458.5,1259 459,1258.5 459.5,1258C 464.155,1257.5 468.821,1257.33 473.5,1257.5 Z"/></g>
<g><path style="opacity:1" fill="#0e1522" d="M 386.5,1167.5 C 407.34,1167.17 428.007,1167.5 448.5,1168.5C 449.5,1168.5 450.5,1168.5 451.5,1168.5C 451.5,1169.83 451.5,1171.17 451.5,1172.5C 450.167,1172.5 448.833,1172.5 447.5,1172.5C 445.625,1176.27 444.291,1180.27 443.5,1184.5C 436.609,1185.54 433.942,1189.37 435.5,1196C 434.354,1196.64 433.354,1197.48 432.5,1198.5C 430.784,1202.48 428.784,1206.31 426.5,1210C 427.772,1212.04 427.439,1213.88 425.5,1215.5C 425.833,1215.83 426.167,1216.17 426.5,1216.5C 429.848,1213.28 433.014,1209.95 436,1206.5C 437.028,1208.36 438.528,1209.69 440.5,1210.5C 441.192,1209.97 441.692,1209.31 442,1208.5C 442.49,1209.79 442.657,1211.13 442.5,1212.5C 443.5,1212.5 444.5,1212.5 445.5,1212.5C 446.167,1214.5 446.833,1216.5 447.5,1218.5C 448.646,1221.83 448.813,1225.16 448,1228.5C 449.529,1229.73 450.696,1231.23 451.5,1233C 460.186,1233.17 468.852,1233.67 477.5,1234.5C 478.853,1235.52 479.52,1236.86 479.5,1238.5C 471.961,1238.7 464.627,1239.7 457.5,1241.5C 457.5,1240.5 457.5,1239.5 457.5,1238.5C 455.94,1238.48 454.44,1238.15 453,1237.5C 451.413,1238.67 449.747,1239.67 448,1240.5C 447.667,1241.83 447.333,1243.17 447,1244.5C 442.29,1248.73 440.29,1254.06 441,1260.5C 439.058,1264.27 436.558,1267.61 433.5,1270.5C 433.709,1271.09 434.043,1271.59 434.5,1272C 431.883,1275.14 428.55,1276.97 424.5,1277.5C 422.219,1276.79 420.052,1275.79 418,1274.5C 414.719,1269.68 412.386,1264.35 411,1258.5C 402.704,1250 398.537,1240 398.5,1228.5C 396.889,1225.78 396.056,1222.78 396,1219.5C 393.767,1217.52 392.6,1215.36 392.5,1213C 391.32,1210.4 389.32,1208.74 386.5,1208C 387.041,1205.14 385.707,1203.14 382.5,1202C 382.833,1201.67 383.167,1201.33 383.5,1201C 382.377,1199.96 381.044,1199.29 379.5,1199C 379.957,1198.59 380.291,1198.09 380.5,1197.5C 378.624,1192.75 376.458,1188.08 374,1183.5C 373.282,1184.45 372.449,1184.62 371.5,1184C 370.626,1178.95 370.626,1173.45 371.5,1167.5C 376.441,1166.9 381.441,1166.9 386.5,1167.5 Z"/></g>
<g><path style="opacity:1" fill="#f5f6f6" d="M 434.5,1211.5 C 435.496,1211.41 436.329,1211.75 437,1212.5C 439.346,1220.22 441.846,1227.88 444.5,1235.5C 438.484,1248.2 432.484,1260.86 426.5,1273.5C 419.604,1262.15 413.271,1250.48 407.5,1238.5C 404.929,1237.27 403.595,1235.27 403.5,1232.5C 405.675,1232.68 407.675,1233.35 409.5,1234.5C 420.057,1229.28 428.39,1221.61 434.5,1211.5 Z"/></g>
<g><path style="opacity:1" fill="#fbfbfb" d="M 448.5,1168.5 C 439.856,1179.99 431.356,1191.66 423,1203.5C 418.606,1212.79 413.773,1221.79 408.5,1230.5C 397.957,1209.75 386.624,1189.42 374.5,1169.5C 399.158,1168.5 423.824,1168.17 448.5,1168.5 Z"/></g>
<g><path style="opacity:1" fill="#008ef9" d="M 447.5,1329.5 C 447.5,1328.83 447.5,1328.17 447.5,1327.5C 448.586,1327.38 449.253,1326.71 449.5,1325.5C 445.436,1321.17 442.769,1316 441.5,1310C 442.258,1307.91 443.425,1306.07 445,1304.5C 445.75,1305.13 446.584,1305.63 447.5,1306C 445.313,1308.67 445.646,1311.17 448.5,1313.5C 449.764,1309.82 449.764,1306.15 448.5,1302.5C 450.046,1301.32 451.713,1300.32 453.5,1299.5C 452.726,1298.29 451.893,1298.29 451,1299.5C 449.599,1297.85 449.432,1296.19 450.5,1294.5C 451.464,1297.08 452.798,1297.58 454.5,1296C 453.715,1293.96 454.048,1291.96 455.5,1290C 449.829,1285.39 450.162,1281.39 456.5,1278C 455.231,1275.86 455.231,1273.69 456.5,1271.5C 457.167,1272.17 457.833,1272.83 458.5,1273.5C 459.739,1271.99 459.405,1270.83 457.5,1270C 461.946,1270.71 462.613,1269.05 459.5,1265C 459.833,1264.5 460.167,1264 460.5,1263.5C 462.982,1264.27 464.815,1263.27 466,1260.5C 467.713,1261.88 469.047,1263.54 470,1265.5C 471,1264.17 472,1264.17 473,1265.5C 473.333,1267.17 473.667,1268.83 474,1270.5C 478.597,1272.61 480.763,1276.27 480.5,1281.5C 486.504,1288.48 489.338,1296.48 489,1305.5C 488.667,1305.17 488.333,1304.83 488,1304.5C 487.138,1306.09 486.471,1307.75 486,1309.5C 485.692,1308.69 485.192,1308.03 484.5,1307.5C 482.743,1310.26 481.076,1313.09 479.5,1316C 477.836,1318.26 477.503,1320.6 478.5,1323C 477.304,1324.36 476.304,1325.86 475.5,1327.5C 477.994,1330.58 477.994,1333.58 475.5,1336.5C 473.002,1337.94 470.836,1337.6 469,1335.5C 467.462,1337.87 465.295,1339.21 462.5,1339.5C 459.047,1337.55 455.713,1335.39 452.5,1333C 451.663,1331.99 451.33,1330.82 451.5,1329.5C 450.167,1329.5 448.833,1329.5 447.5,1329.5 Z"/></g>
</svg>